<?xml version="1.0" encoding="UTF-8"?>
<svg id="Camada_2" data-name="Camada 2" xmlns="http://www.w3.org/2000/svg" xmlns:xlink="http://www.w3.org/1999/xlink" viewBox="0 0 1644.13 1311.78">
  <defs>
    <style>
      .cls-1 {
        fill: #c3161c;
      }

      .cls-2 {
        stroke: #000;
        stroke-miterlimit: 10;
      }

      .cls-2, .cls-3 {
        fill: none;
      }

      .cls-4 {
        fill: #f7f0bd;
      }

      .cls-5 {
        fill: #fff;
      }

      .cls-6 {
        fill: #fdd102;
      }

      .cls-7 {
        fill: #00adee;
      }

      .cls-8 {
        fill: #f87104;
      }

      .cls-9 {
        fill: #0b040c;
      }

      .cls-10 {
        fill: #e6e645;
      }

      .cls-11 {
        fill: #230000;
      }

      .cls-12 {
        fill: #540000;
      }

      .cls-13 {
        clip-path: url(#clippath);
      }
    </style>
    <clipPath id="clippath">
      <path class="cls-3" d="M823.22,169.14h-2.9l-448.59.26c-225.38,0-215.68,231.95-215.68,231.95h40.51s-11.9-199.04,177.64-199.04h896.46c189.55,0,177.66,199.04,177.66,199.04h40.5s9.71-231.95-215.67-231.95l-448.59-.26h-1.34Z"/>
    </clipPath>
  </defs>
  <g id="Camada_2-2" data-name="Camada 2">
    <g>
      <rect class="cls-6" x="1335.34" y="894.18" width="112.79" height="22.25"/>
      <rect class="cls-6" x="1336.47" y="388" width="113.25" height="27.4"/>
      <path class="cls-9" d="M291.51,1054.45l-22.59-18.46-19.09-23.01,69.75-45.54,8.34,9.71,8.74,6.91-45.14,70.38ZM251.54,1013.24l18.19,21.94,21.51,17.57,43.91-68.44-8.01-6.34-7.77-9.03-67.82,44.29Z"/>
      <path class="cls-9" d="M1343.94,1065.14l-41.7-77.67,5.41-2.87,9.94-8.7,10.66-14.12,77.76,41.83-6.85,11.9-44.12,43.49-11.1,6.14ZM1304.29,988.09l40.25,74.99,9.67-5.35,43.81-43.22,5.91-10.29-75.26-40.49-10.03,13.25-10.23,8.92-4.13,2.19Z"/>
      <polygon class="cls-6" points="262.77 1096.57 288.7 1057.16 265.92 1038.39 246.78 1015.85 207.13 1040.89 231.56 1071.34 262.77 1096.57"/>
      <polygon class="cls-6" points="275.04 1105.23 302.08 1118.83 342.32 1129.16 439.32 1131.52 439.33 993.58 369.51 993.4 360.99 993.04 346.12 988.69 275.04 1105.23"/>
      <rect class="cls-6" x="451.89" y="993.58" width="153.87" height="137.94"/>
      <polygon class="cls-6" points="656.36 1001.24 656.36 993.34 618.85 993.34 618.85 1001.24 618.85 1117.99 618.85 1125.88 817.78 1125.88 817.78 1001.24 656.36 1001.24"/>
      <polygon class="cls-6" points="990.78 1001.66 990.78 993.77 1027.85 993.77 1027.85 1001.66 1027.85 1118.4 1027.85 1126.3 831.31 1126.3 831.31 1001.66 990.78 1001.66"/>
      <rect class="cls-6" x="1040.65" y="994.31" width="154.18" height="131.99"/>
      <polygon class="cls-6" points="1207.6 994.31 1207.53 1126.3 1241.98 1125.76 1301.99 1123.04 1341.88 1113.97 1354.2 1107.81 1293.83 991.95 1283.63 994.31 1207.6 994.31"/>
      <polygon class="cls-6" points="1346.79 1067.38 1367.9 1104.69 1381.5 1097.8 1413.59 1072.23 1439.52 1040.32 1446.59 1026 1408.65 1006.21 1401.61 1017.12 1379.37 1039.07 1357.66 1060.48 1346.79 1067.38"/>
      <polygon class="cls-6" points="1333.17 953.69 1448.31 1014.8 1455.01 1001.56 1465.17 963.67 1468.43 927.7 1335.34 927.7 1335.01 945.19 1333.17 953.69"/>
      <rect class="cls-8" x="1335.34" y="763.17" width="133.09" height="122.94"/>
      <rect class="cls-8" x="1335.34" y="583.12" width="133.09" height="167.67"/>
      <rect class="cls-8" x="1335.34" y="424.92" width="133.09" height="144.84"/>
      <polygon class="cls-6" points="1335.16 380.48 1467.88 380.48 1467.88 373.86 1466.07 343.94 1456.83 303.34 1437.55 266.01 1410.78 233.17 1401.71 225.73 1318.3 329.26 1326.1 339.23 1332.27 351.2 1334.75 364.57 1335.34 374.23 1335.16 380.48"/>
      <polygon class="cls-6" points="1306.52 319.83 1389.74 216.12 1380.5 207.6 1342.6 189.65 1302.53 179.14 1270.8 176.78 1244.15 176.96 1243.97 310.95 1272.08 311.01 1281.71 311.42 1294.92 314.03 1306.52 319.83"/>
      <rect class="cls-6" x="1039.27" y="176.97" width="189.11" height="133.98"/>
      <rect class="cls-6" x="832.03" y="177.14" width="188.02" height="133.81"/>
      <rect class="cls-6" x="624.79" y="177.33" width="187.84" height="133.62"/>
      <rect class="cls-6" x="416.29" y="177.33" width="189.1" height="133.62"/>
      <polygon class="cls-6" points="399.79 177.14 373.86 177.32 342.13 179.5 302.22 189.98 265.07 208.51 254.93 216.85 337.42 320.02 349.57 314.03 364 311.38 373.86 310.95 400.87 310.95 399.79 177.14"/>
      <path class="cls-6" d="M242.95,226.46c-.54-.54,83.22,103.17,83.22,103.17l-7.79,9.43-6.17,12.33-2.43,13.23-.46,15.87h-133.45v-6.62s-.36-29.74-.36-29.74l12.69-40.61,18.5-36.8,26.29-32.09,9.97-8.16Z"/>
      <rect class="cls-6" x="196.53" y="580.93" width="112.79" height="171.41"/>
      <rect class="cls-6" x="196.53" y="409.17" width="112.79" height="160.94"/>
      <rect class="cls-6" x="196.53" y="763.17" width="112.79" height="122.94"/>
      <rect class="cls-6" x="196.53" y="894.18" width="112.79" height="22.25"/>
      <rect class="cls-6" x="196.53" y="386" width="112.79" height="17.95"/>
      <polygon class="cls-6" points="176.13 927.7 310.12 927.7 309.68 942.27 312.95 954.96 314.21 957.5 201.5 1028.33 188.02 1001.38 177.5 961.49 176.05 932.67 176.13 927.7"/>
      <polyline class="cls-1" points="156.99 777.48 152.85 777.82 152.2 776.47 114.41 777.65 114.41 765.13 .37 765.85 .37 904.38 115.49 905.1 114.59 875.01 142.69 875.01 142.69 877.71 156.99 878.09"/>
      <polygon class="cls-1" points=".37 749.36 114.41 749.36 114.41 738.66 145.41 738.66 156.99 738.66 156.99 566.2 114.41 565.69 114.41 553.18 .54 554.63 .37 749.36"/>
      <polyline class="cls-1" points="156.99 526.53 156.99 428.7 114.41 429.34 114.41 398.34 0 398.34 .37 536.49 114.41 536.49 114.41 526.53"/>
      <polygon class="cls-1" points="0 388 175.51 388 175.51 344.13 187.11 304.42 194.37 290.64 167.89 277.22 165.36 277.4 162.29 286.68 135.99 273.05 140.97 262.93 37.89 211.41 23.03 241.14 2.54 318.02 0 388"/>
      <polygon class="cls-1" points="43.69 199.99 59.66 168.8 108.61 109.15 169.53 59.65 199.26 44.97 247.85 143.24 250.84 147.31 240.6 152.12 253.29 177.14 261.8 173.15 277.05 201.98 265.25 207.78 232.09 234.74 206.7 266.71 200.17 279.22 172.87 265.28 171.84 263.52 176.23 255.29 151.21 242.6 147.04 251.12 43.69 199.99"/>
      <polygon class="cls-1" points="211.04 38.99 239.33 24.66 316.02 5.62 373.32 0 399.79 1.63 398.34 112.6 398.34 116.04 388.73 116.04 388.55 143.96 399.79 143.96 399.79 177.14 373.68 177.32 342.12 179.5 302.22 189.98 288.83 196.18 275.59 169.53 285.17 164.8 270.29 134.24 261.27 138.52 211.04 38.99"/>
      <polygon class="cls-6" points="417.37 1.63 605.76 1.81 604.31 116.04 594.87 116.04 595.42 144.14 604.85 144.14 605.39 177.33 416.65 177.33 417.37 146.68 428.09 146.69 428.8 116.04 416.65 116.04 417.37 1.63"/>
      <polygon class="cls-6" points="624.89 1.63 813.27 1.81 811.81 116.04 802.39 116.04 802.08 144.14 812.36 144.14 812.9 177.33 624.16 177.33 624.89 144.97 636.03 144.98 636.32 116.04 624.16 116.04 624.89 1.63"/>
      <polygon class="cls-6" points="832.76 1.63 1021.14 1.81 1019.69 116.04 1010.26 116.04 1010.37 144.14 1020.23 144.14 1020.78 177.33 832.03 177.33 832.76 144.54 843.47 144.55 844.18 116.04 832.03 116.04 832.76 1.63"/>
      <polygon class="cls-6" points="1040.27 1.63 1228.65 1.81 1227.2 116.04 1216.49 116.04 1216.61 144.14 1227.74 144.14 1228.29 177.33 1039.54 177.33 1040.27 146.68 1051.41 146.69 1051.69 116.04 1039.54 116.04 1040.27 1.63"/>
      <polygon class="cls-1" points="1244.7 2.18 1271.35 2.18 1330.12 5.62 1405.7 24.47 1433.44 38.8 1382.93 140.86 1373.24 136.71 1360.74 162.09 1369.25 166.08 1356.02 195.64 1339.06 188.73 1302.53 179.14 1273.25 176.96 1244.7 176.78 1244.7 144.72 1255.69 144.72 1255.94 116.04 1244.7 116.04 1244.7 2.18"/>
      <polygon class="cls-1" points="1444.86 44.61 1475.5 60.01 1536.61 109.88 1585.92 170.26 1601.15 200.35 1500 251.23 1494.9 241.5 1469.71 254.38 1473.87 262.9 1445.59 278.49 1439.42 265.8 1413.14 233.17 1380.5 207.6 1367.62 201.26 1381.04 174.24 1389.74 178.29 1404.12 152.62 1394.46 147.95 1444.86 44.61"/>
      <polygon class="cls-1" points="1468.07 403.78 1498.17 403.78 1500.84 403.78 1500.7 388 1644.13 388 1644.13 373.86 1641.23 316.18 1621.64 240.42 1606.95 211.77 1506.05 263.71 1510.06 271.9 1484.75 284.84 1480.58 276.32 1451.03 289.74 1456.65 303.15 1466.2 345.95 1468.07 403.78"/>
      <polygon class="cls-1" points="1468.25 414.11 1500.46 414.11 1500.7 429.52 1528.17 429.52 1528.16 419.19 1528.16 398.16 1644.13 398.16 1644.13 537.94 1529.78 537.94 1529.78 526.17 1498.3 526.55 1498.53 537.94 1468.55 537.94 1468.25 414.11"/>
      <polygon class="cls-1" points="1468.43 555.6 1500.64 555.6 1500.7 566.2 1528.6 566.2 1528.59 551.89 1528.59 555.6 1644.13 555.6 1644.13 749.18 1531.06 749.18 1531.43 737.38 1498.84 737.69 1498.53 749.18 1468.55 749.18 1468.43 555.6"/>
      <polygon class="cls-1" points="1468.43 765.7 1500.64 765.7 1500.7 776.49 1532.45 776.49 1532.44 763.58 1532.44 765.7 1644.13 765.7 1644.13 906.41 1531.06 906.37 1531.43 874.48 1499.69 874.66 1499.81 906.41 1468.97 906.41 1468.43 765.7"/>
      <rect class="cls-10" x="779.45" y="1133.92" width="85.22" height="24.12"/>
      <polygon class="cls-7" points="278.67 1103.81 265.07 1131.02 250.21 1123.94 237.34 1151.5 246.58 1156.04 243.14 1162.93 245.5 1164.2 197.44 1260.29 168.8 1245.79 106.24 1196.75 56.2 1135 42.79 1105.45 139.07 1057.58 139.5 1060.03 147.59 1055.23 151.76 1065.75 176.96 1053.24 170.35 1039.09 199.62 1024.41 206.55 1038.36 232.81 1070.46 265.07 1096.39 278.67 1103.81"/>
      <polygon class="cls-7" points="35.9 1091.67 132.17 1043.8 130.9 1041.27 137.79 1037.82 133.26 1028.57 158.46 1016.07 167.71 1028.94 194.77 1014.89 188.02 1001.38 177.5 961.49 176.05 933.93 175.7 905.75 156.05 905.75 158.6 906.01 142.69 906.01 142.9 927.7 .36 926.66 2.35 986.87 21.76 1063.02 35.9 1091.67"/>
      <polygon class="cls-1" points="1467.57 916.7 1644.13 916.7 1642.13 986.51 1622.19 1064.47 1605.86 1091.85 1505.06 1040.98 1511.04 1029.48 1485.84 1016.79 1479.08 1030.34 1448.31 1014.8 1454.94 1001.68 1464.97 963.3 1467.57 916.7"/>
      <polygon class="cls-1" points="1443.59 1023.86 1474.02 1039.59 1467.16 1053.96 1492.36 1066.65 1499.94 1050.97 1601.15 1106.72 1586.65 1135.19 1536.79 1196.83 1474.96 1246.33 1446.49 1260.65 1392.19 1161.29 1406.79 1151.87 1394.1 1126.48 1379.9 1132.48 1364.9 1102.55 1378.81 1095.04 1410.21 1070.15 1436.33 1038.48 1443.59 1023.86"/>
      <polygon class="cls-1" points="1355.1 1106.82 1369.44 1137.54 1357.11 1144.98 1367.14 1171.61 1378.86 1165.65 1432.53 1267.55 1404.07 1281.69 1327.2 1301.09 1241.79 1304.89 1207.71 1304.89 1207.71 1189.21 1228.56 1189.21 1238.71 1189.21 1238.71 1125.98 1301.99 1122.66 1342.43 1113.04 1355.1 1106.82"/>
      <polygon class="cls-6" points="1227.71 1126.3 1227.47 1166.19 1171.43 1166.19 1171.63 1153.31 1161.3 1153.31 1161.3 1189.21 1191.73 1189.21 1192.3 1304.89 1074.09 1304.89 1073.36 1289.48 955.87 1289.48 955.87 1188.31 986.88 1188.39 986.88 1158.55 953.32 1158.39 953.32 1126.3 1112.66 1126.3 1143.89 1126.3 1227.71 1126.3"/>
      <polygon class="cls-6" points="702.2 1126.3 942.42 1126.3 942.99 1158.39 906.19 1158.39 906.19 1189.21 940.41 1189.21 940.46 1289.48 704.03 1289.48 704.21 1188.31 735.03 1188.2 735.03 1161.11 702.2 1161.51 702.2 1126.3"/>
      <polygon class="cls-6" points="691.12 1126.73 691.12 1161.26 656.61 1161.26 656.76 1189.21 687.85 1189.21 688.62 1289.48 536.2 1289.48 536.2 1311.78 451.89 1311.78 451.89 1189.21 483.2 1189.21 483.2 1153.31 473.05 1153.31 473.05 1166.19 416.11 1166.19 416.11 1125.55 521.66 1125.73 532.47 1126.29 691.12 1126.73"/>
      <polygon class="cls-1" points="436.27 1189.21 436.77 1304.89 402.33 1305.8 317.29 1299.63 239.7 1281.51 211.23 1267.18 262.72 1164.2 274.32 1170 288.29 1143.16 274.32 1135.54 287.92 1106.22 301.88 1113.71 341.78 1123.24 371.62 1124.68 405.77 1124.69 405.77 1189.21 436.27 1189.21"/>
      <path class="cls-11" d="M824.08,945.92h-453.69V359.15h453.69v586.77ZM374.79,941.52h444.89V363.56h-444.89v577.97Z"/>
      <path class="cls-11" d="M1273.37,945.92h-453.69V359.15h453.69v586.77ZM824.08,941.52h444.89V363.56h-444.89v577.97Z"/>
      <path class="cls-11" d="M1274.49,826.23h-143.18v-348.72h143.18v348.72ZM1136.15,821.4h133.49v-339.04h-133.49v339.04Z"/>
      <path class="cls-11" d="M1274.49,733.57h-51.98v-161.96h51.98v161.96ZM1227.35,728.73h42.3v-152.27h-42.3v152.27Z"/>
      <path class="cls-11" d="M1287.37,686.33h-17.72v-67.76h17.72v67.76ZM1274.49,681.48h8.03v-58.07h-8.03v58.07Z"/>
      <path class="cls-11" d="M375.01,686.33h-17.71v-67.76h17.71v67.76ZM362.14,681.48h8.03v-58.07h-8.03v58.07Z"/>
      <path class="cls-11" d="M513.35,827.75h-143.18v-352.32h143.18v352.32ZM375.01,822.9h133.5v-342.64h-133.5v342.64Z"/>
      <path class="cls-11" d="M508.74,721.22v-137.4l3.41,2.3c22.67,15.08,36.21,39.91,36.21,66.42s-13.54,51.34-36.22,66.43l-3.4,2.25ZM513.12,592.15v120.78c19.38-14.42,30.86-36.77,30.86-60.39s-11.48-45.97-30.86-60.39"/>
      <path class="cls-11" d="M1135.92,721.21l-3.4-2.23c-22.69-15.1-36.23-39.93-36.23-66.44s13.54-51.34,36.22-66.43l3.41-2.28v137.38ZM1131.55,592.15c-19.39,14.42-30.87,36.76-30.87,60.39s11.48,45.97,30.87,60.39v-120.78Z"/>
      <path class="cls-11" d="M422.15,733.47h-51.98v-161.86h51.98v161.86ZM375.01,728.62h42.3v-152.17h-42.3v152.17Z"/>
      <path class="cls-11" d="M821.48,734.1c-44.91,0-81.44-36.54-81.44-81.44s36.53-81.44,81.44-81.44,81.44,36.53,81.44,81.44-36.53,81.44-81.44,81.44M821.48,575.95c-42.29,0-76.7,34.41-76.7,76.7s34.41,76.7,76.7,76.7,76.71-34.41,76.71-76.7-34.41-76.7-76.71-76.7"/>
      <rect class="cls-12" x="160.45" y="400.42" width="32.61" height="493.76"/>
      <rect x="1448.33" y="400.42" width="40.5" height="505.33"/>
      <g>
        <path d="M1488.83,905.75h-40.5s11.9,199.04-177.66,199.04h-448.33v33.16h2.23l448.59-.26c225.38,0,215.67-231.95,215.67-231.95"/>
        <path d="M156.05,905.75h40.51s-11.9,199.04,177.64,199.04h448.35v33.16h-2.24l-448.59-.26c-225.38,0-215.68-231.95-215.68-231.95"/>
      </g>
      <path class="cls-4" d="M1273.16,169.4l-448.59-.26h-4.25l-448.59.26c-225.38,0-215.68,231.95-215.68,231.95h40.51s-11.9-199.04,177.64-199.04h896.46c189.55,0,177.66,199.04,177.66,199.04h40.5s9.71-231.95-215.67-231.95"/>
      <g class="cls-13">
        <g>
          <polygon points="146.68 397.97 145.77 359.03 204 359.11 204.92 398.06 146.68 397.97"/>
          <path class="cls-5" d="M147.3,360.53l55.23.08.84,35.94-55.23-.08-.84-35.94M144.23,357.53l.99,41.94,61.24.09-.98-41.94-61.24-.08h0Z"/>
        </g>
        <g>
          <path d="M145.05,399.63l-.99-42.27,61.57.09.99,42.27-61.57-.09ZM145.38,399.3l60.91.09-.98-41.61-60.91-.09.98,41.61Z"/>
          <path class="cls-5" d="M142.52,355.86l1.06,45.27,64.57.09-1.06-45.27-64.57-.09h0ZM204.75,397.89l-57.91-.09-.91-38.61,57.9.08.91,38.61h0Z"/>
        </g>
        <g>
          <polygon points="147.76 350.72 155.47 312.54 212.25 325.49 204.53 363.67 147.76 350.72"/>
          <path class="cls-5" d="M156.64,314.34l53.85,12.29-7.12,35.24-53.85-12.29,7.12-35.24M154.31,310.73l-8.31,41.12,59.7,13.63,8.31-41.12-59.7-13.62h0Z"/>
        </g>
        <g>
          <path d="M145.8,351.98l8.38-41.44,60.02,13.7-8.38,41.45-60.02-13.7ZM146.19,351.73l59.38,13.55,8.25-40.8-59.38-13.55-8.25,40.79Z"/>
          <path class="cls-5" d="M153.01,308.73l-8.97,44.39,62.95,14.37,8.97-44.39-62.95-14.36h0ZM204.4,363.48l-56.45-12.89,7.65-37.85,56.45,12.88-7.65,37.86h0Z"/>
        </g>
        <g>
          <polygon points="159.17 304.81 174.59 269.05 227.48 293.44 212.05 329.2 159.17 304.81"/>
          <path class="cls-5" d="M175.36,271.05l50.16,23.13-14.24,33.01-50.15-23.14,14.24-33.01M173.83,267.04l-16.62,38.52,55.6,25.65,16.62-38.52-55.61-25.65h0Z"/>
        </g>
        <g>
          <path d="M157,305.64l16.75-38.82,55.91,25.78-16.75,38.83-55.91-25.79ZM157.43,305.48l55.3,25.51,16.49-38.22-55.31-25.51-16.48,38.22Z"/>
          <path class="cls-5" d="M172.97,264.81l-17.94,41.58,58.63,27.05,17.94-41.59-58.63-27.04h0ZM211.96,328.98l-52.58-24.25,15.3-35.46,52.58,24.25-15.3,35.46h0Z"/>
        </g>
        <g>
          <polygon points="179.87 262.02 202.22 230.12 249.07 264.71 226.71 296.61 179.87 262.02"/>
          <path class="cls-5" d="M202.57,232.24l44.43,32.81-20.63,29.44-44.43-32.82,20.63-29.44M201.88,228l-24.07,34.36,49.26,36.38,24.08-34.36-49.26-36.38h0Z"/>
        </g>
        <g>
          <path d="M177.57,262.39l24.26-34.63,49.53,36.57-24.27,34.63-49.52-36.58ZM178.03,262.32l48.99,36.18,23.89-34.09-48.99-36.18-23.88,34.08Z"/>
          <path class="cls-5" d="M201.49,225.64l-25.99,37.08,51.94,38.36,25.99-37.09-51.94-38.36h0ZM226.68,296.38l-46.58-34.4,22.16-31.62,46.58,34.4-22.16,31.63h0Z"/>
        </g>
        <g>
          <polygon points="209.07 224.01 237.62 197.51 276.16 241.17 247.61 267.67 209.07 224.01"/>
          <path class="cls-5" d="M237.51,199.66l36.55,41.41-26.35,24.46-36.55-41.41,26.35-24.46M237.72,195.37l-30.75,28.54,40.52,45.91,30.75-28.54-40.53-45.91h0Z"/>
        </g>
        <g>
          <path d="M206.74,223.9l30.99-28.76,40.75,46.15-31,28.77-40.75-46.16ZM207.21,223.92l40.3,45.66,30.51-28.32-40.31-45.66-30.51,28.31Z"/>
          <path class="cls-5" d="M237.84,192.99l-33.19,30.8,42.73,48.41,33.2-30.81-42.73-48.4h0ZM247.62,267.43l-38.32-43.41,28.31-26.27,38.32,43.41-28.31,26.27h0Z"/>
        </g>
        <g>
          <polygon points="246.19 192.63 279.98 173.27 307.67 224.5 273.87 243.87 246.19 192.63"/>
          <path class="cls-5" d="M279.39,175.34l26.26,48.59-31.19,17.88-26.26-48.59,31.19-17.87M280.57,171.2l-36.4,20.86,29.11,53.87,36.4-20.86-29.11-53.87h0Z"/>
        </g>
        <g>
          <path d="M243.95,192l36.69-21.02,29.27,54.16-36.69,21.02-29.27-54.16ZM244.39,192.12l28.95,53.58,36.11-20.69-28.96-53.58-36.11,20.69Z"/>
          <path class="cls-5" d="M281.23,168.91l-39.29,22.51,30.7,56.8,39.29-22.52-30.7-56.8h0ZM273.94,243.64l-27.53-50.94,33.51-19.2,27.53,50.94-33.51,19.2h0Z"/>
        </g>
        <g>
          <polygon points="290.67 170.09 328.17 159.58 342.49 216.02 304.99 226.54 290.67 170.09"/>
          <path class="cls-5" d="M327.1,161.44l13.58,53.54-34.62,9.71-13.58-53.54,34.61-9.7M329.25,157.72l-40.39,11.32,15.05,59.36,40.4-11.33-15.06-59.35h0Z"/>
        </g>
        <g>
          <path d="M288.66,168.92l40.71-11.41,15.14,59.68-40.72,11.42-15.14-59.68ZM289.06,169.16l14.97,59.04,40.08-11.24-14.97-59.03-40.08,11.24Z"/>
          <path class="cls-5" d="M330.45,155.65l-43.6,12.22,15.87,62.59,43.6-12.23-15.88-62.59h0ZM305.11,226.33l-14.23-56.13,37.19-10.43,14.24,56.13-37.19,10.43h0Z"/>
        </g>
        <g>
          <polygon points="341.18 159.15 380.12 158.25 380.03 216.48 341.08 217.39 341.18 159.15"/>
          <path class="cls-5" d="M378.62,159.78l-.09,55.23-35.94.84.1-55.23,35.94-.83M381.63,156.71l-41.94.97-.11,61.24,41.94-.98.1-61.23h0Z"/>
        </g>
        <g>
          <path d="M339.52,157.52l42.27-.98-.1,61.57-42.28.98.11-61.57ZM339.85,157.85l-.11,60.91,41.61-.97.1-60.9-41.61.96Z"/>
          <path class="cls-5" d="M383.3,155.01l-45.27,1.05-.11,64.57,45.28-1.05.11-64.57h0ZM379.96,158.42l-.09,57.9-38.61.9.1-57.91,38.61-.9h0Z"/>
        </g>
        <g>
          <polygon points="383.27 159.22 422.21 158.32 422.11 216.55 383.17 217.46 383.27 159.22"/>
          <path class="cls-5" d="M420.7,159.85l-.09,55.23-35.94.84.1-55.23,35.94-.83M423.71,156.78l-41.94.97-.11,61.24,41.94-.97.1-61.23h0Z"/>
        </g>
        <g>
          <path d="M381.6,157.59l42.27-.98-.1,61.57-42.27.98.11-61.57ZM381.93,157.92l-.11,60.9,41.61-.97.1-60.9-41.61.97Z"/>
          <path class="cls-5" d="M425.38,155.08l-45.27,1.05-.11,64.57,45.27-1.05.11-64.57h0ZM422.04,158.49l-.1,57.9-38.61.9.1-57.9,38.61-.9h0Z"/>
        </g>
        <g>
          <polygon points="425.35 159.29 464.29 158.39 464.19 216.62 425.25 217.53 425.35 159.29"/>
          <path class="cls-5" d="M462.79,159.92l-.09,55.23-35.94.84.1-55.23,35.94-.83M465.79,156.85l-41.94.97-.11,61.24,41.94-.98.1-61.23h0Z"/>
        </g>
        <g>
          <path d="M423.69,157.67l42.27-.98-.1,61.56-42.27.98.11-61.57ZM424.02,157.99l-.1,60.91,41.61-.97.1-60.9-41.61.96Z"/>
          <path class="cls-5" d="M467.46,155.15l-45.27,1.05-.11,64.57,45.27-1.05.11-64.57h0ZM464.12,158.56l-.1,57.9-38.61.9.1-57.91,38.61-.89h0Z"/>
        </g>
        <g>
          <polygon points="467.43 159.36 506.37 158.46 506.27 216.69 467.33 217.6 467.43 159.36"/>
          <path class="cls-5" d="M504.87,159.99l-.09,55.23-35.94.84.1-55.23,35.94-.83M507.87,156.92l-41.94.97-.11,61.24,41.94-.97.1-61.23h0Z"/>
        </g>
        <g>
          <path d="M465.77,157.74l42.27-.98-.1,61.56-42.27.98.1-61.56ZM466.1,158.06l-.1,60.9,41.61-.97.1-60.9-41.61.96Z"/>
          <path class="cls-5" d="M509.54,155.22l-45.27,1.05-.11,64.57,45.27-1.05.11-64.56h0ZM506.2,158.63l-.1,57.9-38.61.9.1-57.9,38.61-.9h0Z"/>
        </g>
        <g>
          <polygon points="509.51 159.43 548.45 158.53 548.36 216.76 509.41 217.67 509.51 159.43"/>
          <path class="cls-5" d="M546.95,160.06l-.09,55.23-35.94.84.1-55.23,35.94-.83M549.96,156.99l-41.94.97-.11,61.24,41.94-.98.1-61.23h0Z"/>
        </g>
        <g>
          <path d="M507.85,157.81l42.27-.98-.1,61.57-42.27.98.11-61.57ZM508.18,158.13l-.1,60.9,41.61-.97.1-60.9-41.61.97Z"/>
          <path class="cls-5" d="M551.63,155.29l-45.27,1.05-.11,64.57,45.27-1.05.11-64.57h0ZM548.29,158.7l-.1,57.9-38.61.9.1-57.9,38.61-.9h0Z"/>
        </g>
        <g>
          <polygon points="551.6 159.5 590.54 158.6 590.44 216.83 551.5 217.74 551.6 159.5"/>
          <path class="cls-5" d="M589.03,160.14l-.09,55.23-35.94.84.09-55.23,35.94-.83M592.04,157.07l-41.94.97-.1,61.24,41.94-.98.1-61.23h0Z"/>
        </g>
        <g>
          <path d="M549.93,157.88l42.27-.98-.1,61.57-42.28.98.11-61.57ZM550.26,158.2l-.11,60.91,41.61-.97.1-60.9-41.61.96Z"/>
          <path class="cls-5" d="M593.71,155.36l-45.27,1.05-.11,64.57,45.28-1.05.11-64.57h0ZM590.37,158.77l-.1,57.9-38.61.9.1-57.91,38.61-.89h0Z"/>
        </g>
        <g>
          <polygon points="593.68 159.57 632.62 158.67 632.52 216.9 593.58 217.81 593.68 159.57"/>
          <path class="cls-5" d="M631.12,160.21l-.09,55.23-35.94.84.09-55.23,35.94-.83M634.12,157.14l-41.94.97-.1,61.24,41.94-.98.1-61.23h0Z"/>
        </g>
        <g>
          <path d="M592.02,157.95l42.27-.98-.1,61.56-42.28.98.11-61.57ZM592.35,158.27l-.11,60.91,41.61-.97.1-60.9-41.61.96Z"/>
          <path class="cls-5" d="M635.79,155.43l-45.27,1.05-.11,64.57,45.28-1.05.11-64.56h0ZM632.45,158.84l-.1,57.9-38.61.9.1-57.91,38.61-.9h0Z"/>
        </g>
        <g>
          <polygon points="635.76 159.65 674.7 158.74 674.6 216.97 635.66 217.88 635.76 159.65"/>
          <path class="cls-5" d="M673.2,160.28l-.09,55.23-35.94.84.09-55.23,35.94-.83M676.2,157.21l-41.94.97-.1,61.24,41.94-.98.1-61.23h0Z"/>
        </g>
        <g>
          <path d="M634.1,158.02l42.27-.98-.1,61.56-42.28.98.11-61.57ZM634.43,158.34l-.11,60.91,41.61-.97.1-60.9-41.61.97Z"/>
          <path class="cls-5" d="M677.88,155.5l-45.27,1.05-.11,64.57,45.28-1.05.11-64.56h0ZM674.54,158.91l-.1,57.9-38.61.9.1-57.9,38.61-.9h0Z"/>
        </g>
        <g>
          <polygon points="677.84 159.72 716.78 158.81 716.69 217.04 677.74 217.95 677.84 159.72"/>
          <path class="cls-5" d="M715.28,160.35l-.09,55.23-35.94.84.09-55.23,35.94-.83M718.29,157.28l-41.94.97-.1,61.24,41.94-.98.1-61.23h0Z"/>
        </g>
        <g>
          <path d="M676.18,158.09l42.27-.98-.1,61.56-42.28.98.11-61.57ZM676.51,158.41l-.11,60.91,41.61-.97.1-60.9-41.61.96Z"/>
          <path class="cls-5" d="M719.96,155.57l-45.27,1.05-.11,64.57,45.28-1.05.11-64.56h0ZM716.62,158.98l-.1,57.9-38.61.9.1-57.91,38.61-.89h0Z"/>
        </g>
        <g>
          <polygon points="719.93 159.79 758.87 158.88 758.77 217.11 719.83 218.02 719.93 159.79"/>
          <path class="cls-5" d="M757.36,160.42l-.09,55.23-35.94.84.09-55.23,35.94-.83M760.37,157.35l-41.94.97-.1,61.24,41.94-.98.1-61.23h0Z"/>
        </g>
        <g>
          <path d="M718.26,158.16l42.27-.98-.1,61.56-42.28.99.11-61.57ZM718.59,158.48l-.1,60.91,41.61-.97.1-60.9-41.61.96Z"/>
          <path class="cls-5" d="M762.04,155.64l-45.27,1.05-.11,64.57,45.28-1.06.11-64.56h0ZM758.7,159.05l-.1,57.9-38.61.9.1-57.91,38.61-.9h0Z"/>
        </g>
        <g>
          <polygon points="762.01 159.86 800.95 158.95 800.85 217.19 761.91 218.09 762.01 159.86"/>
          <path class="cls-5" d="M799.45,160.49l-.09,55.23-35.94.84.09-55.23,35.94-.83M802.45,157.42l-41.94.97-.1,61.24,41.94-.98.1-61.23h0Z"/>
        </g>
        <g>
          <path d="M760.34,158.23l42.27-.98-.1,61.56-42.28.98.1-61.56ZM760.68,158.55l-.1,60.9,41.61-.97.1-60.9-41.61.97Z"/>
          <path class="cls-5" d="M804.12,155.71l-45.27,1.05-.11,64.57,45.28-1.05.11-64.56h0ZM800.78,159.12l-.09,57.9-38.61.9.1-57.9,38.61-.9h0Z"/>
        </g>
        <g>
          <polygon points="804.09 159.93 843.03 159.02 842.93 217.26 803.99 218.16 804.09 159.93"/>
          <path class="cls-5" d="M841.53,160.56l-.09,55.23-35.94.84.09-55.23,35.94-.83M844.53,157.49l-41.94.97-.1,61.24,41.94-.98.1-61.23h0Z"/>
        </g>
        <g>
          <path d="M802.43,158.3l42.27-.98-.1,61.56-42.27.98.1-61.57ZM802.76,158.62l-.1,60.91,41.61-.97.1-60.9-41.61.96Z"/>
          <path class="cls-5" d="M846.2,155.78l-45.27,1.05-.11,64.57,45.27-1.05.11-64.56h0ZM842.86,159.19l-.1,57.9-38.61.9.1-57.91,38.61-.89h0Z"/>
        </g>
        <g>
          <polygon points="846.17 160 885.11 159.09 885.02 217.33 846.07 218.23 846.17 160"/>
          <path class="cls-5" d="M883.61,160.63l-.09,55.23-35.94.84.09-55.23,35.94-.83M886.62,157.56l-41.94.97-.1,61.24,41.94-.98.1-61.23h0Z"/>
        </g>
        <g>
          <path d="M844.51,158.37l42.27-.98-.1,61.56-42.27.98.11-61.57ZM844.84,158.69l-.1,60.91,41.61-.97.1-60.9-41.61.96Z"/>
          <path class="cls-5" d="M888.29,155.85l-45.27,1.05-.11,64.57,45.27-1.05.11-64.56h0ZM884.95,159.26l-.1,57.9-38.61.9.1-57.91,38.61-.9h0Z"/>
        </g>
        <g>
          <polygon points="888.26 160.07 927.2 159.17 927.1 217.4 888.16 218.3 888.26 160.07"/>
          <path class="cls-5" d="M925.69,160.7l-.09,55.23-35.94.84.09-55.23,35.94-.83M928.7,157.63l-41.94.97-.1,61.24,41.94-.98.1-61.23h0Z"/>
        </g>
        <g>
          <path d="M886.59,158.44l42.27-.98-.1,61.56-42.27.99.11-61.57ZM886.92,158.76l-.1,60.91,41.61-.97.1-60.9-41.61.96Z"/>
          <path class="cls-5" d="M930.37,155.93l-45.27,1.05-.11,64.57,45.27-1.06.11-64.56h0ZM927.03,159.34l-.1,57.9-38.61.9.1-57.91,38.61-.89h0Z"/>
        </g>
        <g>
          <polygon points="930.34 160.14 969.28 159.24 969.18 217.47 930.24 218.37 930.34 160.14"/>
          <path class="cls-5" d="M967.78,160.77l-.09,55.23-35.94.84.09-55.23,35.94-.83M970.78,157.7l-41.94.97-.1,61.24,41.94-.98.1-61.23h0Z"/>
        </g>
        <g>
          <path d="M928.67,158.51l42.27-.98-.1,61.56-42.28.99.11-61.57ZM929.01,158.84l-.1,60.91,41.62-.97.1-60.9-41.61.97Z"/>
          <path class="cls-5" d="M972.45,156l-45.27,1.05-.11,64.57,45.28-1.06.11-64.56h0ZM969.11,159.41l-.09,57.9-38.61.9.1-57.9,38.61-.9h0Z"/>
        </g>
        <g>
          <polygon points="972.42 160.21 1011.36 159.31 1011.27 217.54 972.32 218.45 972.42 160.21"/>
          <path class="cls-5" d="M1009.86,160.84l-.09,55.23-35.94.84.09-55.23,35.94-.83M1012.87,157.77l-41.94.97-.1,61.24,41.94-.98.1-61.23h0Z"/>
        </g>
        <g>
          <path d="M970.76,158.58l42.27-.98-.1,61.56-42.27.99.11-61.57ZM971.09,158.91l-.1,60.91,41.61-.97.1-60.9-41.61.96Z"/>
          <path class="cls-5" d="M1014.53,156.07l-45.27,1.05-.11,64.57,45.27-1.06.11-64.56h0ZM1011.19,159.48l-.1,57.9-38.61.9.1-57.91,38.61-.9h0Z"/>
        </g>
        <g>
          <polygon points="1014.5 160.28 1053.45 159.38 1053.35 217.61 1014.41 218.52 1014.5 160.28"/>
          <path class="cls-5" d="M1051.94,160.91l-.09,55.23-35.94.84.09-55.23,35.94-.83M1054.95,157.84l-41.94.97-.1,61.24,41.94-.98.1-61.23h0Z"/>
        </g>
        <g>
          <path d="M1012.84,158.66l42.27-.98-.11,61.56-42.27.99.11-61.56ZM1013.17,158.98l-.1,60.9,41.61-.97.1-60.9-41.61.96Z"/>
          <path class="cls-5" d="M1056.62,156.14l-45.27,1.05-.11,64.57,45.27-1.06.11-64.56h0ZM1053.28,159.55l-.1,57.9-38.61.9.1-57.9,38.61-.89h0Z"/>
        </g>
        <g>
          <polygon points="1056.59 160.35 1095.53 159.45 1095.43 217.68 1056.49 218.59 1056.59 160.35"/>
          <path class="cls-5" d="M1094.02,160.98l-.09,55.23-35.94.84.09-55.23,35.94-.83M1097.03,157.91l-41.94.97-.1,61.24,41.94-.98.1-61.23h0Z"/>
        </g>
        <g>
          <path d="M1054.92,158.73l42.27-.98-.1,61.56-42.27.99.1-61.56ZM1055.25,159.05l-.1,60.9,41.61-.97.1-60.9-41.61.97Z"/>
          <path class="cls-5" d="M1098.7,156.21l-45.27,1.05-.11,64.57,45.27-1.06.11-64.56h0ZM1095.36,159.62l-.1,57.9-38.61.9.1-57.9,38.61-.9h0Z"/>
        </g>
        <g>
          <polygon points="1098.67 160.42 1137.61 159.52 1137.51 217.75 1098.57 218.66 1098.67 160.42"/>
          <path class="cls-5" d="M1136.11,161.05l-.09,55.23-35.94.84.09-55.23,35.94-.83M1139.11,157.98l-41.94.97-.1,61.24,41.94-.98.1-61.23h0Z"/>
        </g>
        <g>
          <path d="M1097,158.8l42.27-.98-.11,61.56-42.27.99.1-61.57ZM1097.34,159.12l-.1,60.91,41.61-.97.1-60.9-41.61.96Z"/>
          <path class="cls-5" d="M1140.78,156.28l-45.27,1.05-.11,64.57,45.27-1.06.11-64.56h0ZM1137.44,159.69l-.1,57.9-38.61.9.1-57.91,38.61-.9h0Z"/>
        </g>
        <g>
          <polygon points="1140.75 160.49 1179.69 159.59 1179.59 217.82 1140.65 218.73 1140.75 160.49"/>
          <path class="cls-5" d="M1178.19,161.13l-.09,55.23-35.94.84.09-55.23,35.94-.83M1181.19,158.05l-41.94.97-.1,61.24,41.94-.98.1-61.23h0Z"/>
        </g>
        <g>
          <path d="M1139.09,158.87l42.27-.98-.1,61.56-42.27.99.11-61.57ZM1139.42,159.19l-.1,60.91,41.61-.97.1-60.9-41.61.96Z"/>
          <path class="cls-5" d="M1182.86,156.35l-45.27,1.05-.11,64.57,45.27-1.06.11-64.56h0ZM1179.52,159.76l-.09,57.9-38.61.9.1-57.91,38.61-.89h0Z"/>
        </g>
        <g>
          <polygon points="1182.83 160.56 1221.77 159.66 1221.68 217.89 1182.74 218.8 1182.83 160.56"/>
          <path class="cls-5" d="M1220.27,161.2l-.09,55.23-35.94.84.09-55.23,35.94-.83M1223.28,158.13l-41.94.97-.1,61.24,41.94-.98.1-61.23h0Z"/>
        </g>
        <g>
          <path d="M1181.17,158.94l42.27-.98-.11,61.56-42.28.99.11-61.57ZM1181.5,159.26l-.1,60.91,41.61-.97.1-60.9-41.61.97Z"/>
          <path class="cls-5" d="M1224.95,156.42l-45.27,1.05-.11,64.57,45.27-1.06.11-64.56h0ZM1221.61,159.83l-.1,57.9-38.61.9.1-57.9,38.61-.9h0Z"/>
        </g>
        <g>
          <polygon points="1224.92 160.63 1263.86 159.73 1263.76 217.96 1224.82 218.87 1224.92 160.63"/>
          <path class="cls-5" d="M1262.35,161.27l-.09,55.23-35.94.84.09-55.23,35.94-.83M1265.36,158.2l-41.94.97-.1,61.24,41.94-.98.1-61.23h0Z"/>
        </g>
        <g>
          <path d="M1223.25,159.01l42.27-.98-.1,61.56-42.27.99.1-61.57ZM1223.58,159.33l-.1,60.91,41.61-.97.1-60.9-41.61.96Z"/>
          <path class="cls-5" d="M1267.03,156.49l-45.27,1.05-.11,64.57,45.27-1.06.11-64.56h0ZM1263.69,159.9l-.1,57.9-38.61.9.1-57.91,38.61-.9h0Z"/>
        </g>
        <g>
          <polygon points="1267.13 160.65 1306.08 159.86 1305.8 218.09 1266.86 218.88 1267.13 160.65"/>
          <path class="cls-5" d="M1304.57,161.39l-.26,55.23-35.94.73.26-55.23,35.94-.72M1307.59,158.33l-41.94.85-.29,61.24,41.94-.85.29-61.23h0Z"/>
        </g>
        <g>
          <path d="M1265.47,159.02l42.28-.85-.29,61.56-42.28.86.29-61.56ZM1265.81,159.34l-.29,60.9,41.62-.84.29-60.9-41.61.84Z"/>
          <path class="cls-5" d="M1309.26,156.63l-45.28.91-.3,64.57,45.28-.92.3-64.56h0ZM1305.91,160.03l-.28,57.9-38.61.78.28-57.9,38.61-.78h0Z"/>
        </g>
        <g>
          <polygon points="1303.77 218.73 1318.11 162.29 1356.09 170.93 1341.75 227.37 1303.77 218.73"/>
          <path class="cls-5" d="M1319.2,164.07l35.05,7.98-13.6,53.53-35.06-7.98,13.6-53.53M1317.02,160.5l-15.07,59.35,40.91,9.31,15.07-59.34-40.91-9.31h0Z"/>
        </g>
        <g>
          <path d="M1301.74,219.97l15.16-59.67,41.23,9.39-15.16,59.67-41.23-9.38ZM1302.14,219.72l40.59,9.23,14.99-59.02-40.58-9.24-14.99,59.03Z"/>
          <path class="cls-5" d="M1315.8,158.51l-15.9,62.58,44.15,10.05,15.9-62.57-44.15-10.05h0ZM1341.64,227.17l-37.66-8.57,14.26-56.12,37.66,8.57-14.25,56.11h0Z"/>
        </g>
        <g>
          <polygon points="1337.59 226.78 1365.1 175.46 1399.88 193 1372.37 244.32 1337.59 226.78"/>
          <path class="cls-5" d="M1365.73,177.45l32.1,16.19-26.09,48.68-32.1-16.19,26.1-48.68M1364.47,173.46l-28.93,53.97,37.46,18.89,28.93-53.96-37.46-18.89h0Z"/>
        </g>
        <g>
          <path d="M1335.32,227.5l29.09-54.26,37.75,19.04-29.09,54.26-37.75-19.04ZM1335.77,227.36l37.17,18.74,28.77-53.67-37.16-18.75-28.77,53.68Z"/>
          <path class="cls-5" d="M1363.77,171.24l-30.5,56.91,40.43,20.39,30.51-56.9-40.43-20.4h0ZM1372.3,244.1l-34.48-17.39,27.36-51.03,34.48,17.39-27.36,51.03h0Z"/>
        </g>
        <g>
          <polygon points="1367.93 242.44 1406.59 198.89 1436.35 224.02 1397.7 267.56 1367.93 242.44"/>
          <path class="cls-5" d="M1406.74,200.98l27.47,23.19-36.67,41.3-27.47-23.19,36.67-41.31M1406.44,196.8l-40.65,45.79,32.06,27.06,40.65-45.79-32.06-27.06h0Z"/>
        </g>
        <g>
          <path d="M1365.55,242.61l40.87-46.04,32.31,27.28-40.87,46.04-32.31-27.27ZM1366.02,242.58l31.81,26.84,40.43-45.54-31.81-26.85-40.43,45.55Z"/>
          <path class="cls-5" d="M1406.27,194.48l-42.87,48.29,34.6,29.21,42.87-48.28-34.6-29.21h0ZM1397.68,267.33l-29.51-24.91,38.44-43.3,29.51,24.91-38.44,43.3h0Z"/>
        </g>
        <g>
          <polygon points="1394 264.98 1441.3 231.01 1464.81 262.07 1417.51 296.04 1394 264.98"/>
          <path class="cls-5" d="M1440.99,233.08l21.69,28.67-44.86,32.22-21.7-28.67,44.86-32.22M1441.62,228.94l-49.74,35.72,25.32,33.45,49.73-35.72-25.31-33.46h0Z"/>
        </g>
        <g>
          <path d="M1391.65,264.63l50-35.92,25.51,33.72-50,35.91-25.52-33.72ZM1392.11,264.7l25.12,33.19,49.46-35.52-25.11-33.19-49.47,35.53Z"/>
          <path class="cls-5" d="M1441.96,226.64l-52.44,37.67,27.33,36.11,52.44-37.66-27.33-36.11h0ZM1417.55,295.81l-23.31-30.79,47.03-33.78,23.3,30.8-47.02,33.77h0Z"/>
        </g>
        <g>
          <polygon points="1414.87 293.43 1468.26 270.18 1484.69 305.49 1431.31 328.74 1414.87 293.43"/>
          <path class="cls-5" d="M1467.51,272.13l15.17,32.59-50.63,22.05-15.18-32.59,50.64-22.05M1469,268.22l-56.14,24.45,17.71,38.03,56.14-24.45-17.7-38.03h0Z"/>
        </g>
        <g>
          <path d="M1412.63,292.58l56.44-24.58,17.84,38.33-56.44,24.58-17.85-38.33ZM1413.08,292.75l17.57,37.73,55.83-24.32-17.57-37.73-55.84,24.32Z"/>
          <path class="cls-5" d="M1469.82,266.04l-59.19,25.78,19.12,41.05,59.19-25.78-19.11-41.05h0ZM1431.39,328.52l-16.31-35.01,53.09-23.12,16.3,35.01-53.08,23.12h0Z"/>
        </g>
        <g>
          <polygon points="1429.59 326.63 1486.62 314.83 1495.46 352.77 1438.44 364.57 1429.59 326.63"/>
          <path class="cls-5" d="M1485.49,316.6l8.16,35.01-54.08,11.19-8.17-35.01,54.09-11.19M1487.75,313.07l-59.96,12.41,9.53,40.86,59.96-12.41-9.52-40.86h0Z"/>
        </g>
        <g>
          <path d="M1427.58,325.35l60.29-12.48,9.6,41.18-60.28,12.47-9.6-41.18ZM1427.98,325.61l9.45,40.53,59.63-12.34-9.45-40.53-59.64,12.34Z"/>
          <path class="cls-5" d="M1489,311.11l-63.23,13.08,10.29,44.1,63.22-13.08-10.28-44.1h0ZM1438.56,364.37l-8.77-37.61,56.7-11.74,8.77,37.61-56.7,11.73h0Z"/>
        </g>
        <g>
          <polygon points="1438.25 402.37 1437.32 363.42 1495.56 363.51 1496.47 402.45 1438.25 402.37"/>
          <path class="cls-5" d="M1438.86,364.93l55.23.08.84,35.94-55.23-.08-.85-35.94M1435.79,361.92l.99,41.94,61.23.09-.98-41.94-61.24-.09h0Z"/>
        </g>
        <g>
          <path d="M1436.62,404.03l-1-42.27,61.57.08.99,42.27-61.56-.09ZM1436.94,403.7l60.9.09-.98-41.61-60.9-.09.98,41.61Z"/>
          <path class="cls-5" d="M1434.08,360.25l1.08,45.27,64.56.09-1.06-45.27-64.57-.09h0ZM1496.3,402.28l-57.9-.08-.91-38.61,57.9.08.91,38.61h0Z"/>
        </g>
      </g>
      <g>
        <path class="cls-5" d="M287.54,92.17h10.37c3.02,0,4.76-1.37,4.76-3.63s-1.32-3.39-3.91-3.39h-5.8v-5.14l3.86-1.13c3.16-.94,4.81-1.65,4.81-3.63,0-1.46-.99-2.31-3.06-2.31h-11.73l2.97-6.74h8.62c6.64,0,10.27,3.02,10.27,7.26v.57c0,3.25-1.74,5.09-4.15,6.41l-.52.28c3.77,1.32,5.75,4.24,5.75,7.77v.66c0,6.17-4.57,9.75-12.34,9.75h-9.9v-6.74Z"/>
        <path class="cls-5" d="M314.07,93.58c0-3.2,0-6.27,5.7-10.65l4.85-3.72c1.88-1.41,3.49-2.5,3.49-3.96,0-1.7-1.55-2.31-3.63-2.31h-10.7l2.97-6.74h7.77c6.97,0,10.79,3.68,10.79,8.2v.61c0,4.29-3.02,6.55-6.31,8.91l-3.39,2.45c-2.36,1.7-4.24,3.35-4.24,5.51v.28h13.71v6.74h-21.01v-5.32Z"/>
        <path class="cls-5" d="M339.89,85.81v-6.41c0-8.2,4.85-13.43,12.06-13.43h1.51c7.11,0,11.78,5.23,11.78,13.33v6.41c0,8.2-4.81,13.43-12.06,13.43h-1.51c-7.21,0-11.78-5.14-11.78-13.33ZM352.9,92.64c2.54,0,5.28-1.13,5.28-7.02v-6.08c0-3.11-.57-7.07-5.18-7.07h-.66c-3.02,0-5.37,1.7-5.37,7.02v6.08c0,3.16.66,7.07,5.28,7.07h.66Z"/>
      </g>
      <g>
        <path class="cls-5" d="M130.01,170.58h10.37c3.02,0,4.76-1.37,4.76-3.63s-1.32-3.39-3.91-3.39h-5.8v-5.14l3.86-1.13c3.16-.94,4.81-1.65,4.81-3.63,0-1.46-.99-2.31-3.06-2.31h-11.73l2.97-6.74h8.62c6.64,0,10.27,3.02,10.27,7.26v.57c0,3.25-1.74,5.09-4.15,6.41l-.52.28c3.77,1.32,5.75,4.24,5.75,7.77v.66c0,6.17-4.57,9.75-12.34,9.75h-9.9v-6.74Z"/>
        <path class="cls-5" d="M156.54,171.99c0-3.2,0-6.27,5.7-10.65l4.85-3.72c1.88-1.41,3.49-2.5,3.49-3.96,0-1.7-1.55-2.31-3.63-2.31h-10.7l2.97-6.74h7.77c6.97,0,10.79,3.68,10.79,8.2v.61c0,4.29-3.02,6.55-6.31,8.91l-3.39,2.45c-2.36,1.7-4.24,3.35-4.24,5.51v.28h13.71v6.74h-21.01v-5.32Z"/>
        <path class="cls-5" d="M183.49,147.02l7.26-2.78v33.08h-7.26v-30.3Z"/>
      </g>
      <g>
        <path class="cls-5" d="M55.13,319.11h10.37c3.02,0,4.76-1.37,4.76-3.63s-1.32-3.39-3.91-3.39h-5.8v-5.14l3.86-1.13c3.16-.94,4.81-1.65,4.81-3.63,0-1.46-.99-2.31-3.06-2.31h-11.73l2.97-6.74h8.62c6.64,0,10.27,3.02,10.27,7.26v.57c0,3.25-1.74,5.09-4.15,6.41l-.52.28c3.77,1.32,5.75,4.24,5.75,7.77v.66c0,6.17-4.57,9.75-12.34,9.75h-9.9v-6.74Z"/>
        <path class="cls-5" d="M81.66,320.52c0-3.2,0-6.27,5.7-10.65l4.85-3.72c1.88-1.41,3.49-2.5,3.49-3.96,0-1.7-1.55-2.31-3.63-2.31h-10.7l2.97-6.74h7.77c6.97,0,10.79,3.68,10.79,8.2v.61c0,4.29-3.02,6.55-6.31,8.91l-3.39,2.45c-2.36,1.7-4.24,3.35-4.24,5.51v.28h13.71v6.74h-21.01v-5.32Z"/>
        <path class="cls-5" d="M107.34,320.52c0-3.2,0-6.27,5.7-10.65l4.85-3.72c1.88-1.41,3.49-2.5,3.49-3.96,0-1.7-1.55-2.31-3.63-2.31h-10.7l2.97-6.74h7.77c6.97,0,10.79,3.68,10.79,8.2v.61c0,4.29-3.02,6.55-6.31,8.91l-3.39,2.45c-2.36,1.7-4.24,3.35-4.24,5.51v.28h13.71v6.74h-21.01v-5.32Z"/>
      </g>
      <g>
        <path d="M480.08,92.17h10.37c3.02,0,4.76-1.37,4.76-3.63s-1.32-3.39-3.91-3.39h-5.8v-5.14l3.86-1.13c3.16-.94,4.81-1.65,4.81-3.63,0-1.46-.99-2.31-3.06-2.31h-11.73l2.97-6.74h8.62c6.64,0,10.27,3.02,10.27,7.26v.57c0,3.25-1.74,5.09-4.15,6.41l-.52.28c3.77,1.32,5.75,4.24,5.75,7.77v.66c0,6.17-4.57,9.75-12.34,9.75h-9.9v-6.74Z"/>
        <path d="M507.88,68.61l7.26-2.78v33.08h-7.26v-30.3Z"/>
        <path d="M524.85,92.26h4.24c4.19,0,6.79-1.74,7.26-6.22v-.14h-5.65c-6.5,0-10.37-3.49-10.37-9.57v-.71c0-5.51,4.48-9.66,10.51-9.66h1.51c6.46,0,10.7,5.09,10.7,12.25v6.36c0,8.06-4.71,14.32-13.9,14.32h-7.21l2.92-6.64ZM536.39,80.01v-1.93c0-3.91-1.79-5.89-4.57-5.89h-.8c-2.69,0-4.1,1.6-4.1,3.63v.61c0,2.26,1.7,3.58,4.48,3.58h5Z"/>
      </g>
      <g>
        <path d="M686.05,92.17h10.37c3.02,0,4.76-1.37,4.76-3.63s-1.32-3.39-3.91-3.39h-5.8v-5.14l3.86-1.13c3.16-.94,4.81-1.65,4.81-3.63,0-1.46-.99-2.31-3.06-2.31h-11.73l2.97-6.74h8.62c6.64,0,10.27,3.02,10.27,7.26v.57c0,3.25-1.74,5.09-4.15,6.41l-.52.28c3.77,1.32,5.75,4.24,5.75,7.77v.66c0,6.17-4.57,9.75-12.35,9.75h-9.89v-6.74Z"/>
        <path d="M713.86,68.61l7.26-2.78v33.08h-7.26v-30.3Z"/>
        <path d="M726.72,90v-1.08c0-3.11,1.79-5.8,4.76-7.44-2.36-1.51-3.72-3.77-3.72-6.22v-.94c0-4.99,4.24-8.34,10.65-8.34h1.32c6.17,0,10.32,3.35,10.32,8.29v.94c0,2.4-1.41,4.71-3.86,6.22,2.92,1.65,4.66,4.43,4.66,7.54v1.08c0,5.42-4.66,9.09-11.5,9.09h-1.46c-6.69,0-11.17-3.67-11.17-9.14ZM739.07,93.25c3.2,0,4.66-1.88,4.66-3.68v-.8c0-1.84-1.46-3.77-4.66-3.77h-.57c-3.2,0-4.67,1.84-4.67,3.63v.8c0,1.79,1.46,3.82,4.67,3.82h.57ZM739.16,78.69c2.83,0,4.1-1.65,4.1-3.25v-.66c0-1.6-1.27-3.3-4.1-3.3h-.47c-2.83,0-4.1,1.56-4.1,3.2v.66c0,1.51,1.27,3.35,4.1,3.35h.47Z"/>
      </g>
      <g>
        <path d="M893.54,92.17h10.37c3.02,0,4.76-1.37,4.76-3.63s-1.32-3.39-3.91-3.39h-5.8v-5.14l3.86-1.13c3.16-.94,4.81-1.65,4.81-3.63,0-1.46-.99-2.31-3.06-2.31h-11.73l2.97-6.74h8.62c6.64,0,10.27,3.02,10.27,7.26v.57c0,3.25-1.74,5.09-4.15,6.41l-.52.28c3.77,1.32,5.75,4.24,5.75,7.77v.66c0,6.17-4.57,9.75-12.34,9.75h-9.9v-6.74Z"/>
        <path d="M921.34,68.61l7.26-2.78v33.08h-7.26v-30.3Z"/>
        <path d="M948.72,72.94h-15.17l2.97-6.74h19.93v5.89l-9.85,26.81h-7.82l9.94-25.96Z"/>
      </g>
      <g>
        <path d="M1100.5,92.17h10.37c3.02,0,4.76-1.37,4.76-3.63s-1.32-3.39-3.91-3.39h-5.8v-5.14l3.86-1.13c3.16-.94,4.81-1.65,4.81-3.63,0-1.46-.99-2.31-3.06-2.31h-11.73l2.97-6.74h8.62c6.64,0,10.27,3.02,10.27,7.26v.57c0,3.25-1.74,5.09-4.15,6.41l-.52.28c3.77,1.32,5.75,4.24,5.75,7.77v.66c0,6.17-4.57,9.75-12.34,9.75h-9.9v-6.74Z"/>
        <path d="M1128.3,68.61l7.26-2.78v33.08h-7.26v-30.3Z"/>
        <path d="M1141.3,86.84v-6.36c0-8.06,4.76-14.51,13.95-14.51h7.12l-2.97,6.64h-4.15c-4.15,0-6.74,1.79-7.26,6.17v.14h5.65c6.46,0,10.37,3.63,10.37,9.75v.71c0,5.61-4.48,9.75-10.51,9.75h-1.51c-6.46,0-10.7-5.14-10.7-12.3ZM1153.27,92.92c2.64,0,4.1-1.7,4.1-3.72v-.61c0-2.26-1.6-3.82-4.43-3.82h-5.04v2.21c0,3.91,1.79,5.94,4.57,5.94h.8Z"/>
      </g>
      <g>
        <path class="cls-5" d="M1294.59,92.17h10.37c3.02,0,4.76-1.37,4.76-3.63s-1.32-3.39-3.91-3.39h-5.8v-5.14l3.86-1.13c3.16-.94,4.81-1.65,4.81-3.63,0-1.46-.99-2.31-3.06-2.31h-11.73l2.97-6.74h8.62c6.64,0,10.27,3.02,10.27,7.26v.57c0,3.25-1.74,5.09-4.15,6.41l-.52.28c3.77,1.32,5.75,4.24,5.75,7.77v.66c0,6.17-4.57,9.75-12.34,9.75h-9.9v-6.74Z"/>
        <path class="cls-5" d="M1322.4,68.61l7.26-2.78v33.08h-7.26v-30.3Z"/>
        <path class="cls-5" d="M1338.14,92.17h7.44c3.02,0,4.71-1.32,4.71-3.63,0-2.17-1.32-3.35-3.91-3.35h-10.23l2.92-18.99h16.26v6.69h-10.74l-.9,6.17h3.35c6.64,0,10.32,3.63,10.32,9.52,0,6.6-4.48,10.32-12.06,10.32h-10.13l2.97-6.74Z"/>
      </g>
      <g>
        <path class="cls-5" d="M1452.31,178.35h10.37c3.02,0,4.76-1.37,4.76-3.63s-1.32-3.39-3.91-3.39h-5.8v-5.14l3.86-1.13c3.16-.94,4.81-1.65,4.81-3.63,0-1.46-.99-2.31-3.06-2.31h-11.73l2.97-6.74h8.62c6.64,0,10.27,3.02,10.27,7.26v.57c0,3.25-1.74,5.09-4.15,6.41l-.52.28c3.77,1.32,5.75,4.24,5.75,7.77v.66c0,6.17-4.57,9.75-12.34,9.75h-9.9v-6.74Z"/>
        <path class="cls-5" d="M1480.12,154.8l7.26-2.78v33.08h-7.26v-30.3Z"/>
        <path class="cls-5" d="M1506.83,177.41h-13.81v-5.89l12.16-19.13h7.16l-11.97,18.94h6.46v-4.29l6.31-2.54v6.83h3.91v6.08h-3.91v7.68h-6.31v-7.68Z"/>
      </g>
      <g>
        <path class="cls-5" d="M1529.03,321.32h10.37c3.02,0,4.76-1.37,4.76-3.63s-1.32-3.39-3.91-3.39h-5.8v-5.14l3.86-1.13c3.16-.94,4.81-1.65,4.81-3.63,0-1.46-.99-2.31-3.06-2.31h-11.73l2.97-6.74h8.62c6.64,0,10.27,3.02,10.27,7.26v.57c0,3.25-1.74,5.09-4.15,6.41l-.52.28c3.77,1.32,5.75,4.24,5.75,7.77v.66c0,6.17-4.57,9.75-12.34,9.75h-9.9v-6.74Z"/>
        <path class="cls-5" d="M1556.83,297.76l7.26-2.78v33.08h-7.26v-30.3Z"/>
        <path class="cls-5" d="M1570.54,321.32h10.37c3.02,0,4.76-1.37,4.76-3.63s-1.32-3.39-3.91-3.39h-5.8v-5.14l3.86-1.13c3.16-.94,4.81-1.65,4.81-3.63,0-1.46-.99-2.31-3.06-2.31h-11.73l2.97-6.74h8.62c6.64,0,10.27,3.02,10.27,7.26v.57c0,3.25-1.74,5.09-4.15,6.41l-.52.28c3.77,1.32,5.75,4.24,5.75,7.77v.66c0,6.17-4.57,9.75-12.34,9.75h-9.9v-6.74Z"/>
      </g>
      <g>
        <path class="cls-5" d="M1521.44,999.7h10.37c3.02,0,4.76-1.37,4.76-3.63s-1.32-3.39-3.91-3.39h-5.8v-5.14l3.86-1.13c3.16-.94,4.81-1.65,4.81-3.63,0-1.46-.99-2.31-3.06-2.31h-11.73l2.97-6.74h8.62c6.64,0,10.27,3.02,10.27,7.26v.57c0,3.25-1.74,5.09-4.15,6.41l-.52.28c3.77,1.32,5.75,4.24,5.75,7.77v.66c0,6.17-4.57,9.75-12.34,9.75h-9.9v-6.74Z"/>
        <path class="cls-5" d="M1548.11,993.34v-6.41c0-8.2,4.85-13.43,12.06-13.43h1.51c7.12,0,11.78,5.23,11.78,13.33v6.41c0,8.2-4.81,13.43-12.06,13.43h-1.51c-7.21,0-11.78-5.14-11.78-13.33ZM1561.12,1000.17c2.54,0,5.28-1.13,5.28-7.02v-6.08c0-3.11-.57-7.07-5.18-7.07h-.66c-3.02,0-5.37,1.7-5.37,7.02v6.08c0,3.16.66,7.07,5.28,7.07h.66Z"/>
        <path class="cls-5" d="M1582.04,999.79h4.24c4.19,0,6.79-1.74,7.26-6.22v-.14h-5.65c-6.5,0-10.37-3.49-10.37-9.57v-.71c0-5.51,4.48-9.66,10.51-9.66h1.51c6.46,0,10.7,5.09,10.7,12.25v6.36c0,8.06-4.71,14.32-13.9,14.32h-7.21l2.92-6.64ZM1593.59,987.54v-1.93c0-3.91-1.79-5.89-4.57-5.89h-.8c-2.69,0-4.1,1.6-4.1,3.63v.61c0,2.26,1.7,3.58,4.48,3.58h5Z"/>
      </g>
      <g>
        <path class="cls-5" d="M1545.19,483.9h10.37c3.02,0,4.76-1.37,4.76-3.63s-1.32-3.39-3.91-3.39h-5.8v-5.14l3.86-1.13c3.16-.94,4.81-1.65,4.81-3.63,0-1.46-.99-2.31-3.06-2.31h-11.73l2.97-6.74h8.62c6.64,0,10.27,3.02,10.27,7.26v.57c0,3.25-1.74,5.09-4.15,6.41l-.52.28c3.77,1.32,5.75,4.24,5.75,7.77v.66c0,6.17-4.57,9.75-12.34,9.75h-9.9v-6.74Z"/>
        <path class="cls-5" d="M1572.99,460.34l7.26-2.78v33.08h-7.26v-30.3Z"/>
        <path class="cls-5" d="M1586.14,485.31c0-3.2,0-6.27,5.7-10.65l4.85-3.72c1.88-1.41,3.49-2.5,3.49-3.96,0-1.7-1.55-2.31-3.63-2.31h-10.7l2.97-6.74h7.77c6.97,0,10.79,3.68,10.79,8.2v.61c0,4.29-3.02,6.55-6.31,8.91l-3.39,2.45c-2.36,1.7-4.24,3.35-4.24,5.51v.28h13.71v6.74h-21.02v-5.32Z"/>
      </g>
      <g>
        <path d="M1364.95,484.42l7.26-2.78v33.08h-7.26v-30.3Z"/>
        <path d="M1379.37,484.42l7.26-2.78v33.08h-7.26v-30.3Z"/>
        <path d="M1393.08,507.98h10.37c3.02,0,4.76-1.37,4.76-3.63s-1.32-3.39-3.91-3.39h-5.8v-5.14l3.86-1.13c3.16-.94,4.81-1.65,4.81-3.63,0-1.46-.99-2.31-3.06-2.31h-11.73l2.97-6.74h8.62c6.64,0,10.27,3.02,10.27,7.26v.57c0,3.25-1.74,5.09-4.15,6.41l-.52.28c3.77,1.32,5.75,4.24,5.75,7.77v.66c0,6.17-4.57,9.75-12.34,9.75h-9.9v-6.74Z"/>
      </g>
      <g>
        <path d="M1364.34,319.11l7.26-2.78v33.08h-7.26v-30.3Z"/>
        <path d="M1378.76,319.11l7.26-2.78v33.08h-7.26v-30.3Z"/>
        <path d="M1405.47,341.73h-13.81v-5.89l12.16-19.13h7.16l-11.97,18.94h6.46v-4.29l6.31-2.54v6.83h3.91v6.08h-3.91v7.68h-6.31v-7.68Z"/>
      </g>
      <g>
        <path d="M1271.88,243.34l7.26-2.78v33.08h-7.26v-30.3Z"/>
        <path d="M1286.3,243.34l7.26-2.78v33.08h-7.26v-30.3Z"/>
        <path d="M1302.04,266.9h7.44c3.02,0,4.71-1.32,4.71-3.63,0-2.17-1.32-3.35-3.91-3.35h-10.23l2.92-18.99h16.26v6.69h-10.74l-.9,6.17h3.35c6.64,0,10.32,3.63,10.32,9.52,0,6.6-4.48,10.32-12.06,10.32h-10.13l2.97-6.74Z"/>
      </g>
      <g>
        <path d="M1110.06,243.34l7.26-2.78v33.08h-7.26v-30.3Z"/>
        <path d="M1124.48,243.34l7.26-2.78v33.08h-7.26v-30.3Z"/>
        <path d="M1137.49,261.57v-6.36c0-8.06,4.76-14.51,13.95-14.51h7.12l-2.97,6.64h-4.15c-4.15,0-6.74,1.79-7.26,6.17v.14h5.65c6.46,0,10.37,3.63,10.37,9.75v.71c0,5.61-4.48,9.75-10.51,9.75h-1.51c-6.46,0-10.7-5.14-10.7-12.3ZM1149.46,267.65c2.64,0,4.1-1.7,4.1-3.72v-.61c0-2.26-1.6-3.82-4.43-3.82h-5.04v2.21c0,3.91,1.79,5.94,4.57,5.94h.8Z"/>
      </g>
      <g>
        <path d="M902.39,243.34l7.26-2.78v33.08h-7.26v-30.3Z"/>
        <path d="M916.81,243.34l7.26-2.78v33.08h-7.26v-30.3Z"/>
        <path d="M944.19,247.67h-15.17l2.97-6.74h19.93v5.89l-9.85,26.81h-7.82l9.94-25.96Z"/>
      </g>
      <g>
        <path d="M693.83,243.34l7.26-2.78v33.08h-7.26v-30.3Z"/>
        <path d="M708.25,243.34l7.26-2.78v33.08h-7.26v-30.3Z"/>
        <path d="M721.11,264.73v-1.08c0-3.11,1.79-5.8,4.76-7.44-2.36-1.51-3.72-3.77-3.72-6.22v-.94c0-4.99,4.24-8.34,10.65-8.34h1.32c6.17,0,10.32,3.35,10.32,8.29v.94c0,2.4-1.41,4.71-3.86,6.22,2.92,1.65,4.66,4.43,4.66,7.54v1.08c0,5.42-4.66,9.09-11.5,9.09h-1.46c-6.69,0-11.17-3.67-11.17-9.14ZM733.46,267.98c3.2,0,4.66-1.88,4.66-3.68v-.8c0-1.84-1.46-3.77-4.66-3.77h-.57c-3.2,0-4.67,1.84-4.67,3.63v.8c0,1.79,1.46,3.82,4.67,3.82h.57ZM733.55,253.42c2.83,0,4.1-1.65,4.1-3.25v-.66c0-1.6-1.27-3.3-4.1-3.3h-.47c-2.83,0-4.1,1.56-4.1,3.2v.66c0,1.51,1.27,3.35,4.1,3.35h.47Z"/>
      </g>
      <g>
        <path d="M488.89,241.45l7.26-2.78v33.08h-7.26v-30.3Z"/>
        <path d="M503.31,241.45l7.26-2.78v33.08h-7.26v-30.3Z"/>
        <path d="M520.28,265.11h4.24c4.19,0,6.79-1.74,7.26-6.22v-.14h-5.65c-6.5,0-10.37-3.49-10.37-9.56v-.71c0-5.51,4.48-9.66,10.51-9.66h1.51c6.46,0,10.7,5.09,10.7,12.25v6.36c0,8.06-4.71,14.32-13.9,14.32h-7.21l2.92-6.64ZM531.82,252.86v-1.93c0-3.91-1.79-5.89-4.57-5.89h-.8c-2.69,0-4.1,1.6-4.1,3.63v.61c0,2.26,1.7,3.58,4.48,3.58h5Z"/>
      </g>
      <g>
        <path d="M325.66,244.38l7.26-2.78v33.08h-7.26v-30.3Z"/>
        <path d="M338.81,269.35c0-3.2,0-6.27,5.7-10.65l4.85-3.72c1.88-1.41,3.49-2.5,3.49-3.96,0-1.7-1.56-2.31-3.63-2.31h-10.7l2.97-6.74h7.77c6.97,0,10.79,3.68,10.79,8.2v.61c0,4.29-3.02,6.55-6.31,8.91l-3.39,2.45c-2.36,1.7-4.24,3.35-4.24,5.51v.28h13.71v6.74h-21.02v-5.32Z"/>
        <path d="M364.63,261.57v-6.41c0-8.2,4.85-13.43,12.06-13.43h1.51c7.12,0,11.78,5.23,11.78,13.33v6.41c0,8.2-4.81,13.43-12.06,13.43h-1.51c-7.21,0-11.78-5.14-11.78-13.33ZM377.64,268.41c2.54,0,5.28-1.13,5.28-7.02v-6.08c0-3.11-.57-7.07-5.18-7.07h-.66c-3.02,0-5.37,1.7-5.37,7.02v6.08c0,3.16.66,7.07,5.28,7.07h.66Z"/>
      </g>
      <g>
        <path d="M238.3,333.3l7.26-2.78v33.08h-7.26v-30.3Z"/>
        <path d="M251.44,358.27c0-3.2,0-6.27,5.7-10.65l4.85-3.72c1.88-1.41,3.49-2.5,3.49-3.96,0-1.7-1.56-2.31-3.63-2.31h-10.7l2.97-6.74h7.77c6.97,0,10.79,3.68,10.79,8.2v.61c0,4.29-3.02,6.55-6.31,8.91l-3.39,2.45c-2.36,1.7-4.24,3.35-4.24,5.51v.28h13.71v6.74h-21.02v-5.32Z"/>
        <path d="M278.4,333.3l7.26-2.78v33.08h-7.26v-30.3Z"/>
      </g>
      <g>
        <path d="M1365.7,645.86l7.26-2.78v33.08h-7.26v-30.3Z"/>
        <path d="M1380.12,645.86l7.26-2.78v33.08h-7.26v-30.3Z"/>
        <path d="M1393.27,670.83c0-3.2,0-6.27,5.7-10.65l4.85-3.72c1.88-1.41,3.49-2.5,3.49-3.96,0-1.7-1.56-2.31-3.63-2.31h-10.7l2.97-6.74h7.78c6.97,0,10.79,3.68,10.79,8.2v.61c0,4.29-3.02,6.55-6.31,8.91l-3.39,2.45c-2.36,1.7-4.24,3.35-4.24,5.51v.28h13.71v6.74h-21.02v-5.32Z"/>
      </g>
      <g>
        <path d="M1371.31,807.3l7.26-2.78v33.08h-7.26v-30.3Z"/>
        <path d="M1385.73,807.3l7.26-2.78v33.08h-7.26v-30.3Z"/>
        <path d="M1400.15,807.3l7.26-2.78v33.08h-7.26v-30.3Z"/>
      </g>
      <g>
        <path d="M1373.67,939.67l7.26-2.78v33.08h-7.26v-30.3Z"/>
        <path d="M1388.09,939.67l7.26-2.78v33.08h-7.26v-30.3Z"/>
        <path d="M1401.37,956.87v-6.41c0-8.2,4.85-13.43,12.06-13.43h1.51c7.12,0,11.78,5.23,11.78,13.33v6.41c0,8.2-4.81,13.43-12.06,13.43h-1.51c-7.21,0-11.78-5.14-11.78-13.33ZM1414.38,963.7c2.54,0,5.28-1.13,5.28-7.02v-6.08c0-3.11-.57-7.07-5.18-7.07h-.66c-3.02,0-5.37,1.7-5.37,7.02v6.08c0,3.16.66,7.07,5.28,7.07h.66Z"/>
      </g>
      <g>
        <path d="M1379.29,1048.49l1.2-3.38,11.61,9.92-2.18,2.55-10.64-9.09Z"/>
        <path d="M1389.32,1048.98l-2.25-1.92c-2.88-2.46-3.26-5.73-1.1-8.26l.45-.53c2.13-2.5,5.37-2.57,8.21-.13l2.25,1.92c2.88,2.46,3.27,5.72,1.1,8.26l-.45.53c-2.16,2.53-5.34,2.59-8.21.14ZM1395.62,1046.47c.76-.89,1.19-2.19-.88-3.96l-2.13-1.82c-1.09-.93-2.65-1.92-4.04-.3l-.2.23c-.9,1.06-1.02,2.39.85,3.99l2.13,1.82c1.11.95,2.68,1.89,4.06.27l.2-.23Z"/>
        <path d="M1401.76,1039l1.27-1.49c1.26-1.47,1.42-2.9,0-4.41l-.05-.04-1.7,1.98c-1.95,2.28-4.33,2.59-6.47.77l-.25-.21c-1.94-1.65-2.05-4.47-.24-6.59l.45-.53c1.94-2.27,5-2.23,7.51-.08l2.23,1.91c2.83,2.42,3.62,5.95.86,9.18l-2.16,2.53-1.46-3.02ZM1400.92,1031.28l-.68-.58c-1.37-1.17-2.6-1.14-3.44-.16l-.24.28c-.81.94-.67,1.92.04,2.53l.22.18c.79.68,1.77.48,2.6-.5l1.5-1.75Z"/>
      </g>
      <g>
        <path d="M250.65,1030.87l3.25,1.52-10.98,10.62-2.33-2.41,10.06-9.73Z"/>
        <path d="M249.21,1040.81l2.13-2.06c2.72-2.63,6.02-2.7,8.33-.31l.48.5c2.28,2.36,2.05,5.59-.64,8.19l-2.13,2.06c-2.72,2.63-6,2.72-8.33.31l-.48-.5c-2.31-2.39-2.08-5.56.64-8.19ZM251.12,1047.32c.82.84,2.07,1.39,4.02-.5l2.02-1.95c1.03-1,2.16-2.46.68-3.99l-.21-.22c-.97-1-2.29-1.24-4.05.47l-2.02,1.95c-1.05,1.01-2.13,2.49-.65,4.02l.21.22Z"/>
        <path d="M256.18,1053.17c1.06-1.03,2.08-2.01,5.36-1.53l2.79.42c1.07.17,1.95.36,2.43-.11.56-.54.27-1.26-.4-1.95l-3.43-3.55,3.19-1.18,2.5,2.58c2.24,2.32,2.24,4.76.74,6.21l-.2.2c-1.42,1.38-3.14,1.1-4.98.76l-1.9-.34c-1.32-.24-2.47-.33-3.19.36l-.09.09,4.4,4.55-2.24,2.16-6.75-6.97,1.77-1.71Z"/>
      </g>
      <g>
        <path d="M1229.53,1036.94l7.26-2.78v33.08h-7.26v-30.3Z"/>
        <path d="M1242.82,1054.14v-6.41c0-8.2,4.85-13.43,12.06-13.43h1.51c7.12,0,11.78,5.23,11.78,13.33v6.41c0,8.2-4.81,13.43-12.06,13.43h-1.51c-7.21,0-11.78-5.14-11.78-13.33ZM1255.83,1060.97c2.54,0,5.28-1.13,5.28-7.02v-6.08c0-3.11-.57-7.07-5.18-7.07h-.66c-3.02,0-5.37,1.7-5.37,7.02v6.08c0,3.16.66,7.07,5.28,7.07h.66Z"/>
        <path d="M1272.65,1058.33v-1.08c0-3.11,1.79-5.8,4.76-7.45-2.36-1.51-3.72-3.77-3.72-6.22v-.94c0-4.99,4.24-8.34,10.65-8.34h1.32c6.17,0,10.32,3.35,10.32,8.29v.94c0,2.4-1.41,4.71-3.86,6.22,2.92,1.65,4.67,4.43,4.67,7.54v1.08c0,5.42-4.67,9.09-11.5,9.09h-1.46c-6.69,0-11.17-3.67-11.17-9.14ZM1285,1061.58c3.2,0,4.67-1.88,4.67-3.67v-.8c0-1.84-1.46-3.77-4.67-3.77h-.57c-3.2,0-4.66,1.84-4.66,3.63v.8c0,1.79,1.46,3.82,4.66,3.82h.57ZM1285.09,1047.02c2.83,0,4.1-1.65,4.1-3.25v-.66c0-1.6-1.27-3.3-4.1-3.3h-.47c-2.83,0-4.1,1.55-4.1,3.2v.66c0,1.51,1.27,3.35,4.1,3.35h.47Z"/>
      </g>
      <g>
        <path d="M1084.4,1036.94l7.26-2.78v33.08h-7.26v-30.3Z"/>
        <path d="M1097.69,1054.14v-6.41c0-8.2,4.85-13.43,12.06-13.43h1.51c7.12,0,11.78,5.23,11.78,13.33v6.41c0,8.2-4.81,13.43-12.06,13.43h-1.51c-7.21,0-11.78-5.14-11.78-13.33ZM1110.69,1060.97c2.54,0,5.28-1.13,5.28-7.02v-6.08c0-3.11-.57-7.07-5.18-7.07h-.66c-3.02,0-5.37,1.7-5.37,7.02v6.08c0,3.16.66,7.07,5.28,7.07h.66Z"/>
        <path d="M1141.09,1041.27h-15.17l2.97-6.74h19.93v5.89l-9.85,26.81h-7.82l9.94-25.96Z"/>
      </g>
      <g>
        <path d="M897.56,1036.94l7.26-2.78v33.08h-7.26v-30.3Z"/>
        <path d="M910.85,1054.14v-6.41c0-8.2,4.85-13.43,12.06-13.43h1.51c7.12,0,11.78,5.23,11.78,13.33v6.41c0,8.2-4.81,13.43-12.06,13.43h-1.51c-7.21,0-11.78-5.14-11.78-13.33ZM923.85,1060.97c2.54,0,5.28-1.13,5.28-7.02v-6.08c0-3.11-.57-7.07-5.18-7.07h-.66c-3.02,0-5.37,1.7-5.37,7.02v6.08c0,3.16.66,7.07,5.28,7.07h.66Z"/>
        <path d="M940.82,1055.18v-6.36c0-8.06,4.76-14.51,13.95-14.51h7.11l-2.97,6.64h-4.15c-4.15,0-6.74,1.79-7.26,6.17v.14h5.65c6.46,0,10.37,3.63,10.37,9.75v.71c0,5.61-4.48,9.75-10.51,9.75h-1.51c-6.46,0-10.7-5.14-10.7-12.3ZM952.78,1061.25c2.64,0,4.1-1.7,4.1-3.72v-.61c0-2.26-1.6-3.82-4.43-3.82h-5.04v2.21c0,3.91,1.79,5.94,4.57,5.94h.8Z"/>
      </g>
      <g>
        <path d="M686.68,1036.94l7.26-2.78v33.08h-7.26v-30.3Z"/>
        <path d="M699.97,1054.14v-6.41c0-8.2,4.85-13.43,12.06-13.43h1.51c7.12,0,11.78,5.23,11.78,13.33v6.41c0,8.2-4.81,13.43-12.06,13.43h-1.51c-7.21,0-11.78-5.14-11.78-13.33ZM712.98,1060.97c2.54,0,5.28-1.13,5.28-7.02v-6.08c0-3.11-.57-7.07-5.18-7.07h-.66c-3.02,0-5.37,1.7-5.37,7.02v6.08c0,3.16.66,7.07,5.28,7.07h.66Z"/>
        <path d="M732.67,1060.5h7.44c3.02,0,4.71-1.32,4.71-3.63,0-2.17-1.32-3.35-3.91-3.35h-10.22l2.92-18.99h16.26v6.69h-10.74l-.9,6.17h3.35c6.64,0,10.32,3.63,10.32,9.52,0,6.6-4.48,10.32-12.06,10.32h-10.13l2.97-6.74Z"/>
      </g>
      <g>
        <path d="M497.25,1036.94l7.26-2.78v33.08h-7.26v-30.3Z"/>
        <path d="M510.54,1054.14v-6.41c0-8.2,4.85-13.43,12.06-13.43h1.51c7.11,0,11.78,5.23,11.78,13.33v6.41c0,8.2-4.81,13.43-12.06,13.43h-1.51c-7.21,0-11.78-5.14-11.78-13.33ZM523.54,1060.97c2.54,0,5.28-1.13,5.28-7.02v-6.08c0-3.11-.57-7.07-5.18-7.07h-.66c-3.02,0-5.37,1.7-5.37,7.02v6.08c0,3.16.66,7.07,5.28,7.07h.66Z"/>
        <path d="M554.22,1059.56h-13.81v-5.89l12.16-19.13h7.16l-11.97,18.94h6.46v-4.29l6.31-2.54v6.83h3.91v6.08h-3.91v7.68h-6.31v-7.68Z"/>
      </g>
      <g>
        <path d="M337.88,1036.94l7.26-2.78v33.08h-7.26v-30.3Z"/>
        <path d="M351.17,1054.14v-6.41c0-8.2,4.85-13.43,12.06-13.43h1.51c7.12,0,11.78,5.23,11.78,13.33v6.41c0,8.2-4.81,13.43-12.06,13.43h-1.51c-7.21,0-11.78-5.14-11.78-13.33ZM364.18,1060.97c2.54,0,5.28-1.13,5.28-7.02v-6.08c0-3.11-.57-7.07-5.18-7.07h-.66c-3.02,0-5.37,1.7-5.37,7.02v6.08c0,3.16.66,7.07,5.28,7.07h.66Z"/>
        <path d="M381.42,1060.5h10.37c3.02,0,4.76-1.37,4.76-3.63s-1.32-3.39-3.91-3.39h-5.8v-5.14l3.86-1.13c3.16-.94,4.81-1.65,4.81-3.63,0-1.46-.99-2.31-3.06-2.31h-11.73l2.97-6.74h8.62c6.64,0,10.27,3.02,10.27,7.26v.57c0,3.25-1.74,5.09-4.15,6.41l-.52.28c3.77,1.32,5.75,4.24,5.75,7.78v.66c0,6.17-4.57,9.75-12.35,9.75h-9.89v-6.74Z"/>
      </g>
      <g>
        <path d="M227.38,940.95l7.26-2.78v33.08h-7.26v-30.3Z"/>
        <path d="M240.67,958.15v-6.41c0-8.2,4.85-13.43,12.06-13.43h1.51c7.11,0,11.78,5.23,11.78,13.33v6.41c0,8.2-4.81,13.43-12.06,13.43h-1.51c-7.21,0-11.78-5.14-11.78-13.33ZM253.67,964.98c2.54,0,5.28-1.13,5.28-7.02v-6.08c0-3.11-.57-7.07-5.18-7.07h-.66c-3.02,0-5.37,1.7-5.37,7.02v6.08c0,3.16.66,7.07,5.28,7.07h.66Z"/>
        <path d="M272.05,940.95l7.26-2.78v33.08h-7.26v-30.3Z"/>
      </g>
      <g>
        <path class="cls-5" d="M1550.82,669.38h10.37c3.02,0,4.76-1.37,4.76-3.63s-1.32-3.39-3.91-3.39h-5.8v-5.14l3.86-1.13c3.16-.94,4.81-1.65,4.81-3.63,0-1.46-.99-2.31-3.06-2.31h-11.73l2.97-6.74h8.62c6.64,0,10.27,3.02,10.27,7.26v.57c0,3.25-1.74,5.09-4.15,6.41l-.52.28c3.77,1.32,5.75,4.24,5.75,7.77v.66c0,6.17-4.57,9.75-12.34,9.75h-9.9v-6.74Z"/>
        <path class="cls-5" d="M1578.62,645.82l7.26-2.78v33.08h-7.26v-30.3Z"/>
        <path class="cls-5" d="M1593.04,645.82l7.26-2.78v33.08h-7.26v-30.3Z"/>
      </g>
      <g>
        <path class="cls-5" d="M1542.9,839.54h10.37c3.02,0,4.76-1.37,4.76-3.63s-1.32-3.39-3.91-3.39h-5.8v-5.14l3.86-1.13c3.16-.94,4.81-1.65,4.81-3.63,0-1.46-.99-2.31-3.06-2.31h-11.73l2.97-6.74h8.62c6.64,0,10.27,3.02,10.27,7.26v.57c0,3.25-1.74,5.09-4.15,6.41l-.52.28c3.77,1.32,5.75,4.24,5.75,7.78v.66c0,6.17-4.57,9.75-12.34,9.75h-9.9v-6.74Z"/>
        <path class="cls-5" d="M1570.7,815.98l7.26-2.78v33.08h-7.26v-30.3Z"/>
        <path class="cls-5" d="M1583.99,833.18v-6.41c0-8.2,4.85-13.43,12.06-13.43h1.51c7.12,0,11.78,5.23,11.78,13.33v6.41c0,8.2-4.81,13.43-12.06,13.43h-1.51c-7.21,0-11.78-5.14-11.78-13.33ZM1596.99,840.01c2.54,0,5.28-1.13,5.28-7.02v-6.08c0-3.11-.57-7.07-5.18-7.07h-.66c-3.02,0-5.37,1.7-5.37,7.02v6.08c0,3.16.66,7.07,5.28,7.07h.66Z"/>
      </g>
      <g>
        <path class="cls-5" d="M1446.91,1149.94h10.37c3.02,0,4.76-1.37,4.76-3.63s-1.32-3.39-3.91-3.39h-5.8v-5.14l3.86-1.13c3.16-.94,4.81-1.65,4.81-3.63,0-1.46-.99-2.31-3.06-2.31h-11.73l2.97-6.74h8.62c6.64,0,10.27,3.02,10.27,7.26v.57c0,3.25-1.74,5.09-4.15,6.41l-.52.28c3.77,1.32,5.75,4.24,5.75,7.77v.66c0,6.17-4.57,9.75-12.34,9.75h-9.9v-6.74Z"/>
        <path class="cls-5" d="M1473.58,1143.58v-6.41c0-8.2,4.85-13.43,12.06-13.43h1.51c7.12,0,11.78,5.23,11.78,13.33v6.41c0,8.2-4.81,13.43-12.06,13.43h-1.51c-7.21,0-11.78-5.14-11.78-13.33ZM1486.59,1150.41c2.54,0,5.28-1.13,5.28-7.02v-6.08c0-3.11-.57-7.07-5.18-7.07h-.66c-3.02,0-5.37,1.7-5.37,7.02v6.08c0,3.16.66,7.07,5.28,7.07h.66Z"/>
        <path class="cls-5" d="M1503.41,1147.77v-1.08c0-3.11,1.79-5.8,4.76-7.44-2.36-1.51-3.72-3.77-3.72-6.22v-.94c0-5,4.24-8.34,10.65-8.34h1.32c6.17,0,10.32,3.35,10.32,8.29v.94c0,2.4-1.41,4.71-3.86,6.22,2.92,1.65,4.67,4.43,4.67,7.54v1.08c0,5.42-4.67,9.09-11.5,9.09h-1.46c-6.69,0-11.17-3.67-11.17-9.14ZM1515.76,1151.02c3.2,0,4.67-1.88,4.67-3.68v-.8c0-1.84-1.46-3.77-4.67-3.77h-.57c-3.2,0-4.67,1.84-4.67,3.63v.8c0,1.79,1.46,3.82,4.67,3.82h.57ZM1515.85,1136.46c2.83,0,4.1-1.65,4.1-3.25v-.66c0-1.6-1.27-3.3-4.1-3.3h-.47c-2.83,0-4.1,1.56-4.1,3.21v.66c0,1.51,1.27,3.35,4.1,3.35h.47Z"/>
      </g>
      <g>
        <path class="cls-5" d="M1265.49,1229.86h10.37c3.02,0,4.76-1.37,4.76-3.63s-1.32-3.39-3.91-3.39h-5.8v-5.14l3.86-1.13c3.16-.94,4.81-1.65,4.81-3.63,0-1.46-.99-2.31-3.06-2.31h-11.73l2.97-6.74h8.62c6.64,0,10.27,3.02,10.27,7.26v.57c0,3.25-1.74,5.09-4.15,6.41l-.52.28c3.77,1.32,5.75,4.24,5.75,7.77v.66c0,6.17-4.57,9.75-12.34,9.75h-9.9v-6.74Z"/>
        <path class="cls-5" d="M1292.16,1223.5v-6.41c0-8.2,4.85-13.43,12.06-13.43h1.51c7.12,0,11.78,5.23,11.78,13.33v6.41c0,8.2-4.81,13.43-12.06,13.43h-1.51c-7.21,0-11.78-5.14-11.78-13.33ZM1305.17,1230.33c2.54,0,5.28-1.13,5.28-7.02v-6.08c0-3.11-.57-7.07-5.18-7.07h-.66c-3.02,0-5.37,1.7-5.37,7.02v6.08c0,3.16.66,7.07,5.28,7.07h.66Z"/>
        <path class="cls-5" d="M1335.61,1210.63h-15.17l2.97-6.74h19.93v5.89l-9.85,26.81h-7.82l9.94-25.96Z"/>
      </g>
      <g>
        <path d="M1039.44,1229.86h10.37c3.02,0,4.76-1.37,4.76-3.63s-1.32-3.39-3.91-3.39h-5.8v-5.14l3.86-1.13c3.16-.94,4.81-1.65,4.81-3.63,0-1.46-.99-2.31-3.06-2.31h-11.73l2.97-6.74h8.62c6.64,0,10.27,3.02,10.27,7.26v.57c0,3.25-1.74,5.09-4.15,6.41l-.52.28c3.77,1.32,5.75,4.24,5.75,7.77v.66c0,6.17-4.57,9.75-12.34,9.75h-9.9v-6.74Z"/>
        <path d="M1066.11,1223.5v-6.41c0-8.2,4.85-13.43,12.06-13.43h1.51c7.12,0,11.78,5.23,11.78,13.33v6.41c0,8.2-4.81,13.43-12.06,13.43h-1.51c-7.21,0-11.78-5.14-11.78-13.33ZM1079.12,1230.33c2.54,0,5.28-1.13,5.28-7.02v-6.08c0-3.11-.57-7.07-5.18-7.07h-.66c-3.02,0-5.37,1.7-5.37,7.02v6.08c0,3.16.66,7.07,5.28,7.07h.66Z"/>
        <path d="M1096.08,1224.53v-6.36c0-8.06,4.76-14.51,13.95-14.51h7.12l-2.97,6.64h-4.15c-4.15,0-6.74,1.79-7.26,6.17v.14h5.65c6.46,0,10.37,3.63,10.37,9.75v.71c0,5.61-4.48,9.75-10.51,9.75h-1.51c-6.46,0-10.7-5.14-10.7-12.3ZM1108.05,1230.61c2.64,0,4.1-1.7,4.1-3.72v-.61c0-2.26-1.6-3.82-4.43-3.82h-5.04v2.21c0,3.91,1.79,5.94,4.57,5.94h.8Z"/>
      </g>
      <g>
        <path d="M783.71,1229.86h10.37c3.02,0,4.76-1.37,4.76-3.63s-1.32-3.39-3.91-3.39h-5.8v-5.14l3.86-1.13c3.16-.94,4.81-1.65,4.81-3.63,0-1.46-.99-2.31-3.06-2.31h-11.73l2.97-6.74h8.62c6.64,0,10.27,3.02,10.27,7.26v.57c0,3.25-1.74,5.09-4.15,6.41l-.52.28c3.77,1.32,5.75,4.24,5.75,7.77v.66c0,6.17-4.57,9.75-12.34,9.75h-9.9v-6.74Z"/>
        <path d="M810.38,1223.5v-6.41c0-8.2,4.85-13.43,12.06-13.43h1.51c7.12,0,11.78,5.23,11.78,13.33v6.41c0,8.2-4.81,13.43-12.06,13.43h-1.51c-7.21,0-11.78-5.14-11.78-13.33ZM823.39,1230.33c2.54,0,5.28-1.13,5.28-7.02v-6.08c0-3.11-.57-7.07-5.18-7.07h-.66c-3.02,0-5.37,1.7-5.37,7.02v6.08c0,3.16.66,7.07,5.28,7.07h.66Z"/>
        <path d="M843.08,1229.86h7.44c3.02,0,4.71-1.32,4.71-3.63,0-2.17-1.32-3.35-3.91-3.35h-10.23l2.92-18.99h16.26v6.69h-10.74l-.9,6.17h3.35c6.64,0,10.32,3.63,10.32,9.52,0,6.6-4.48,10.32-12.06,10.32h-10.13l2.97-6.74Z"/>
      </g>
      <g>
        <path d="M544.09,1227.97h10.37c3.02,0,4.76-1.37,4.76-3.63s-1.32-3.39-3.91-3.39h-5.8v-5.14l3.86-1.13c3.16-.94,4.81-1.65,4.81-3.63,0-1.46-.99-2.31-3.06-2.31h-11.73l2.97-6.74h8.62c6.64,0,10.27,3.02,10.27,7.26v.57c0,3.25-1.74,5.09-4.15,6.41l-.52.28c3.77,1.32,5.75,4.24,5.75,7.77v.66c0,6.17-4.57,9.75-12.35,9.75h-9.89v-6.74Z"/>
        <path d="M570.76,1221.61v-6.41c0-8.2,4.85-13.43,12.06-13.43h1.51c7.12,0,11.78,5.23,11.78,13.33v6.41c0,8.2-4.81,13.43-12.06,13.43h-1.51c-7.21,0-11.78-5.14-11.78-13.33ZM583.77,1228.44c2.54,0,5.28-1.13,5.28-7.02v-6.08c0-3.11-.57-7.07-5.18-7.07h-.66c-3.02,0-5.37,1.7-5.37,7.02v6.08c0,3.16.66,7.07,5.28,7.07h.66Z"/>
        <path d="M614.44,1227.03h-13.81v-5.89l12.16-19.13h7.16l-11.97,18.94h6.46v-4.29l6.31-2.54v6.83h3.91v6.08h-3.91v7.68h-6.31v-7.68Z"/>
      </g>
      <g>
        <path class="cls-5" d="M302.35,1229.01h10.37c3.02,0,4.76-1.37,4.76-3.63s-1.32-3.39-3.91-3.39h-5.8v-5.14l3.86-1.13c3.16-.94,4.81-1.65,4.81-3.63,0-1.46-.99-2.31-3.06-2.31h-11.73l2.97-6.74h8.62c6.64,0,10.27,3.02,10.27,7.26v.57c0,3.25-1.74,5.09-4.15,6.41l-.52.28c3.77,1.32,5.75,4.24,5.75,7.77v.66c0,6.17-4.57,9.75-12.35,9.75h-9.89v-6.74Z"/>
        <path class="cls-5" d="M328.13,1222.65v-6.41c0-8.2,4.85-13.43,12.06-13.43h1.51c7.11,0,11.78,5.23,11.78,13.33v6.41c0,8.2-4.81,13.43-12.06,13.43h-1.51c-7.21,0-11.78-5.14-11.78-13.33ZM341.13,1229.48c2.54,0,5.28-1.13,5.28-7.02v-6.08c0-3.11-.57-7.07-5.18-7.07h-.66c-3.02,0-5.37,1.7-5.37,7.02v6.08c0,3.16.66,7.07,5.28,7.07h.66Z"/>
        <path class="cls-5" d="M357.91,1229.01h10.37c3.02,0,4.76-1.37,4.76-3.63s-1.32-3.39-3.91-3.39h-5.8v-5.14l3.86-1.13c3.16-.94,4.81-1.65,4.81-3.63,0-1.46-.99-2.31-3.06-2.31h-11.73l2.97-6.74h8.62c6.64,0,10.27,3.02,10.27,7.26v.57c0,3.25-1.74,5.09-4.15,6.41l-.52.28c3.77,1.32,5.75,4.24,5.75,7.77v.66c0,6.17-4.57,9.75-12.34,9.75h-9.9v-6.74Z"/>
      </g>
      <g>
        <path class="cls-5" d="M122.25,1155.17h10.37c3.02,0,4.76-1.37,4.76-3.63s-1.32-3.39-3.91-3.39h-5.8v-5.14l3.86-1.13c3.16-.94,4.81-1.65,4.81-3.63,0-1.46-.99-2.31-3.06-2.31h-11.73l2.97-6.74h8.62c6.64,0,10.27,3.02,10.27,7.26v.57c0,3.25-1.74,5.09-4.15,6.41l-.52.28c3.77,1.32,5.75,4.24,5.75,7.77v.66c0,6.17-4.57,9.75-12.34,9.75h-9.9v-6.74Z"/>
        <path class="cls-5" d="M148.92,1148.81v-6.41c0-8.2,4.85-13.43,12.06-13.43h1.51c7.11,0,11.78,5.23,11.78,13.33v6.41c0,8.2-4.81,13.43-12.06,13.43h-1.51c-7.21,0-11.78-5.14-11.78-13.33ZM161.93,1155.64c2.54,0,5.28-1.13,5.28-7.02v-6.08c0-3.11-.57-7.07-5.18-7.07h-.66c-3.02,0-5.37,1.7-5.37,7.02v6.08c0,3.16.66,7.07,5.28,7.07h.66Z"/>
        <path class="cls-5" d="M178.66,1156.58c0-3.2,0-6.27,5.7-10.65l4.85-3.72c1.88-1.41,3.49-2.5,3.49-3.96,0-1.7-1.56-2.31-3.63-2.31h-10.7l2.97-6.74h7.77c6.97,0,10.79,3.68,10.79,8.2v.61c0,4.29-3.02,6.55-6.31,8.91l-3.39,2.45c-2.36,1.7-4.24,3.34-4.24,5.51v.28h13.71v6.74h-21.02v-5.32Z"/>
      </g>
      <g>
        <path class="cls-5" d="M42.19,992.55h10.37c3.02,0,4.76-1.37,4.76-3.63s-1.32-3.39-3.91-3.39h-5.8v-5.14l3.86-1.13c3.16-.94,4.81-1.65,4.81-3.63,0-1.46-.99-2.31-3.06-2.31h-11.73l2.97-6.74h8.62c6.64,0,10.27,3.02,10.27,7.26v.57c0,3.25-1.74,5.09-4.15,6.41l-.52.28c3.77,1.32,5.75,4.24,5.75,7.77v.66c0,6.17-4.57,9.75-12.34,9.75h-9.9v-6.74Z"/>
        <path class="cls-5" d="M68.86,986.19v-6.41c0-8.2,4.85-13.43,12.06-13.43h1.51c7.11,0,11.78,5.23,11.78,13.33v6.41c0,8.2-4.81,13.43-12.06,13.43h-1.51c-7.21,0-11.78-5.14-11.78-13.33ZM81.86,993.02c2.54,0,5.28-1.13,5.28-7.02v-6.08c0-3.11-.57-7.07-5.18-7.07h-.66c-3.02,0-5.37,1.7-5.37,7.02v6.08c0,3.16.66,7.07,5.28,7.07h.66Z"/>
        <path class="cls-5" d="M100.24,968.99l7.26-2.78v33.08h-7.26v-30.3Z"/>
      </g>
      <rect class="cls-2" x="1449.7" y="397.82" width="38.38" height="507.93"/>
      <g>
        <path d="M227.49,484.39l7.26-2.78v33.08h-7.26v-30.3Z"/>
        <path d="M240.63,509.36c0-3.2,0-6.27,5.7-10.65l4.85-3.72c1.88-1.41,3.49-2.5,3.49-3.96,0-1.7-1.55-2.31-3.63-2.31h-10.7l2.97-6.74h7.77c6.97,0,10.79,3.68,10.79,8.2v.61c0,4.29-3.02,6.55-6.31,8.91l-3.39,2.45c-2.36,1.7-4.24,3.35-4.24,5.51v.28h13.71v6.74h-21.01v-5.32Z"/>
        <path d="M266.31,509.36c0-3.2,0-6.27,5.7-10.65l4.85-3.72c1.88-1.41,3.49-2.5,3.49-3.96,0-1.7-1.55-2.31-3.63-2.31h-10.7l2.97-6.74h7.77c6.97,0,10.79,3.68,10.79,8.2v.61c0,4.29-3.02,6.55-6.31,8.91l-3.39,2.45c-2.36,1.7-4.24,3.35-4.24,5.51v.28h13.71v6.74h-21.01v-5.32Z"/>
      </g>
      <g>
        <path d="M228.57,656.01l7.26-2.78v33.08h-7.26v-30.3Z"/>
        <path d="M241.72,680.98c0-3.2,0-6.27,5.7-10.65l4.85-3.72c1.88-1.41,3.49-2.5,3.49-3.96,0-1.7-1.56-2.31-3.63-2.31h-10.7l2.97-6.74h7.77c6.97,0,10.79,3.68,10.79,8.2v.61c0,4.29-3.02,6.55-6.31,8.91l-3.39,2.45c-2.36,1.7-4.24,3.35-4.24,5.51v.28h13.71v6.74h-21.02v-5.32Z"/>
        <path d="M267.96,679.57h10.37c3.02,0,4.76-1.37,4.76-3.63s-1.32-3.39-3.91-3.39h-5.8v-5.14l3.86-1.13c3.16-.94,4.81-1.65,4.81-3.63,0-1.46-.99-2.31-3.06-2.31h-11.73l2.97-6.74h8.62c6.64,0,10.27,3.02,10.27,7.26v.57c0,3.25-1.74,5.09-4.15,6.41l-.52.28c3.77,1.32,5.75,4.24,5.75,7.77v.66c0,6.17-4.57,9.75-12.34,9.75h-9.9v-6.74Z"/>
      </g>
      <g>
        <path d="M224.99,815.94l7.26-2.78v33.08h-7.26v-30.3Z"/>
        <path d="M238.13,840.92c0-3.2,0-6.27,5.7-10.65l4.85-3.72c1.88-1.41,3.49-2.5,3.49-3.96,0-1.7-1.56-2.31-3.63-2.31h-10.7l2.97-6.74h7.77c6.97,0,10.79,3.68,10.79,8.2v.61c0,4.29-3.02,6.55-6.31,8.91l-3.39,2.45c-2.36,1.7-4.24,3.34-4.24,5.51v.28h13.71v6.74h-21.02v-5.32Z"/>
        <path d="M276.02,838.56h-13.81v-5.89l12.16-19.13h7.16l-11.97,18.94h6.46v-4.29l6.31-2.54v6.83h3.91v6.08h-3.91v7.68h-6.31v-7.68Z"/>
      </g>
      <g>
        <path class="cls-5" d="M43.14,835.79h10.37c3.02,0,4.76-1.37,4.76-3.63s-1.32-3.39-3.91-3.39h-5.8v-5.14l3.86-1.13c3.16-.94,4.81-1.65,4.81-3.63,0-1.46-.99-2.31-3.06-2.31h-11.73l2.97-6.74h8.62c6.64,0,10.27,3.02,10.27,7.26v.57c0,3.25-1.74,5.09-4.15,6.41l-.52.28c3.77,1.32,5.75,4.24,5.75,7.77v.66c0,6.17-4.57,9.75-12.35,9.75h-9.89v-6.74Z"/>
        <path class="cls-5" d="M69.67,837.2c0-3.2,0-6.27,5.7-10.65l4.85-3.72c1.88-1.41,3.49-2.5,3.49-3.96,0-1.7-1.56-2.31-3.63-2.31h-10.7l2.97-6.74h7.77c6.97,0,10.79,3.68,10.79,8.2v.61c0,4.29-3.02,6.55-6.31,8.91l-3.39,2.45c-2.36,1.7-4.24,3.34-4.24,5.51v.28h13.71v6.74h-21.02v-5.32Z"/>
        <path class="cls-5" d="M97.94,835.79h7.44c3.02,0,4.71-1.32,4.71-3.63,0-2.17-1.32-3.35-3.91-3.35h-10.23l2.92-18.99h16.26v6.69h-10.74l-.9,6.17h3.35c6.64,0,10.32,3.63,10.32,9.52,0,6.6-4.48,10.32-12.06,10.32h-10.13l2.97-6.74Z"/>
      </g>
      <g>
        <path class="cls-5" d="M42.95,656.39h10.37c3.02,0,4.76-1.37,4.76-3.63s-1.32-3.39-3.91-3.39h-5.8v-5.14l3.86-1.13c3.16-.94,4.81-1.65,4.81-3.63,0-1.46-.99-2.31-3.06-2.31h-11.73l2.97-6.74h8.62c6.64,0,10.27,3.02,10.27,7.26v.57c0,3.25-1.74,5.09-4.15,6.41l-.52.28c3.77,1.32,5.75,4.24,5.75,7.77v.66c0,6.17-4.57,9.75-12.35,9.75h-9.89v-6.74Z"/>
        <path class="cls-5" d="M69.48,657.8c0-3.2,0-6.27,5.7-10.65l4.85-3.72c1.88-1.41,3.49-2.5,3.49-3.96,0-1.7-1.56-2.31-3.63-2.31h-10.7l2.97-6.74h7.77c6.97,0,10.79,3.68,10.79,8.2v.61c0,4.29-3.02,6.55-6.31,8.91l-3.39,2.45c-2.36,1.7-4.24,3.35-4.24,5.51v.28h13.71v6.74h-21.02v-5.32Z"/>
        <path class="cls-5" d="M107.32,655.45h-13.81v-5.89l12.16-19.13h7.16l-11.97,18.94h6.46v-4.29l6.31-2.54v6.83h3.91v6.08h-3.91v7.68h-6.31v-7.68Z"/>
      </g>
      <g>
        <path class="cls-5" d="M42.86,483.87h10.37c3.02,0,4.76-1.37,4.76-3.63s-1.32-3.39-3.91-3.39h-5.8v-5.14l3.86-1.13c3.16-.94,4.81-1.65,4.81-3.63,0-1.46-.99-2.31-3.06-2.31h-11.73l2.97-6.74h8.62c6.64,0,10.27,3.02,10.27,7.26v.57c0,3.25-1.74,5.09-4.15,6.41l-.52.28c3.77,1.32,5.75,4.24,5.75,7.77v.66c0,6.17-4.57,9.75-12.34,9.75h-9.9v-6.74Z"/>
        <path class="cls-5" d="M69.39,485.29c0-3.2,0-6.27,5.7-10.65l4.85-3.72c1.88-1.41,3.49-2.5,3.49-3.96,0-1.7-1.55-2.31-3.63-2.31h-10.7l2.97-6.74h7.77c6.97,0,10.79,3.68,10.79,8.2v.61c0,4.29-3.02,6.55-6.31,8.91l-3.39,2.45c-2.36,1.7-4.24,3.35-4.24,5.51v.28h13.71v6.74h-21.01v-5.32Z"/>
        <path class="cls-5" d="M95.63,483.87h10.37c3.02,0,4.76-1.37,4.76-3.63s-1.32-3.39-3.91-3.39h-5.8v-5.14l3.86-1.13c3.16-.94,4.81-1.65,4.81-3.63,0-1.46-.99-2.31-3.06-2.31h-11.73l2.97-6.74h8.62c6.64,0,10.27,3.02,10.27,7.26v.57c0,3.25-1.74,5.09-4.15,6.41l-.52.28c3.77,1.32,5.75,4.24,5.75,7.77v.66c0,6.17-4.57,9.75-12.35,9.75h-9.89v-6.74Z"/>
      </g>
      <g>
        <path class="cls-5" d="M187.11,758.87c0,2.69-1.89,4.47-4.41,4.47h-10.32c-2.52,0-4.41-1.78-4.41-4.47s1.78-4.19,4.24-4.19h2.66v2.61h-2.72c-.89,0-1.53.5-1.53,1.53s.64,1.53,1.5,1.53h10.82c.86,0,1.5-.5,1.5-1.53s-.64-1.53-1.53-1.53h-2.75v-2.61h2.69c2.47,0,4.24,1.47,4.24,4.19Z"/>
        <path class="cls-5" d="M186.78,744.94h-7.77v3.11h7.77v2.94h-18.48v-2.94h8.02v-3.11h-8.02v-2.94h18.48v2.94Z"/>
        <path class="cls-5" d="M187.11,733.68c0,2.66-1.8,4.41-4.38,4.41h-10.37c-2.55,0-4.38-1.75-4.38-4.41s1.83-4.41,4.38-4.41h10.37c2.58,0,4.38,1.75,4.38,4.41ZM172.13,732.24c-.89,0-1.5.53-1.5,1.44s.61,1.44,1.5,1.44h10.82c.89,0,1.5-.53,1.5-1.44s-.61-1.44-1.5-1.44h-10.82Z"/>
        <path class="cls-5" d="M179.48,720.64v1.78h7.3v2.94h-18.48v-4.72c0-2.11,1.17-3.61,3.75-3.61h3.72c2.55,0,3.72,1.5,3.72,3.61ZM172.05,719.9c-.8,0-1.22.3-1.22,1v1.53h6.3v-1.53c0-.69-.42-1-1.22-1h-3.86Z"/>
        <path class="cls-5" d="M186.78,713.43h-18.48v-7.38h2.61v4.44h5.1v-3.08h2.44v3.08h5.63v-4.44h2.69v7.38Z"/>
        <path class="cls-5" d="M186.86,695.29c0,1.14-1.11,1.58-2.55,1.58h-3.97c-.75,0-1.36.39-1.36,1.19v1.44h7.79v2.94h-18.48v-4.72c0-2.05,1.14-3.63,3.63-3.63h3.27c1.25,0,2.16.56,2.61,1.75.42-1.19,1.41-1.8,2.55-1.8h3.77c.83,0,1.41-.19,1.89-.56h.83v1.8ZM172.02,696.98c-.78,0-1.19.31-1.19,1v1.53h5.85v-1.42c0-.72-.42-1.11-1.3-1.11h-3.36Z"/>
        <path class="cls-5" d="M186.78,690.1h-18.48v-2.94h18.48v2.94Z"/>
        <path class="cls-5" d="M186.78,677.57l-3.61.47v2.69l3.61.55v2.69l-18.48-3.08v-3.25l18.48-3.08v3ZM173.16,679.29l7.55,1.08v-2l-7.55.92Z"/>
        <path class="cls-5" d="M186.78,654.54l-3.61.47v2.69l3.61.55v2.69l-18.48-3.08v-3.25l18.48-3.08v3ZM173.16,656.26l7.55,1.08v-2l-7.55.92Z"/>
        <path class="cls-5" d="M186.86,641.23c0,1.14-1.11,1.58-2.55,1.58h-3.97c-.75,0-1.36.39-1.36,1.19v1.44h7.79v2.94h-18.48v-4.72c0-2.05,1.14-3.63,3.63-3.63h3.27c1.25,0,2.16.56,2.61,1.75.42-1.19,1.41-1.8,2.55-1.8h3.77c.83,0,1.41-.19,1.89-.55h.83v1.8ZM172.02,642.92c-.78,0-1.19.31-1.19,1v1.53h5.85v-1.42c0-.72-.42-1.11-1.3-1.11h-3.36Z"/>
        <path class="cls-5" d="M186.78,636.04h-18.48v-7.38h2.61v4.44h5.1v-3.08h2.44v3.08h5.63v-4.44h2.69v7.38Z"/>
        <path class="cls-5" d="M186.78,618.29l-8.38,3.11-2.83,1.03h11.21v2.66h-18.48v-2.61l8.46-2.88,2.86-.94h-11.32v-2.64h18.48v2.27Z"/>
        <path class="cls-5" d="M186.78,606.45l-3.61.47v2.69l3.61.55v2.69l-18.48-3.08v-3.25l18.48-3.08v3ZM173.16,608.17l7.55,1.08v-2l-7.55.92Z"/>
        <path class="cls-5" d="M186.78,584.09v4.83h-18.48v-4.77c0-2.05,1.08-3.55,3.58-3.55h2.69c1.39,0,2.39.53,2.77,1.83.44-1.36,1.41-1.89,2.77-1.89h3.08c2.52,0,3.58,1.53,3.58,3.55ZM172.02,583.42c-.78,0-1.19.33-1.19,1.03v1.5h5.49v-1.39c0-.72-.42-1.14-1.28-1.14h-3.02ZM179.87,583.4c-.83,0-1.3.42-1.3,1.14v1.41h5.69v-1.55c0-.69-.42-1-1.19-1h-3.19Z"/>
        <path class="cls-5" d="M186.86,569.55c0,1.14-1.11,1.58-2.55,1.58h-3.97c-.75,0-1.36.39-1.36,1.19v1.44h7.79v2.94h-18.48v-4.72c0-2.05,1.14-3.63,3.63-3.63h3.27c1.25,0,2.16.56,2.61,1.75.42-1.19,1.41-1.8,2.55-1.8h3.77c.83,0,1.41-.19,1.89-.55h.83v1.8ZM172.02,571.25c-.78,0-1.19.31-1.19,1v1.53h5.85v-1.42c0-.72-.42-1.11-1.3-1.11h-3.36Z"/>
        <path class="cls-5" d="M186.78,558.87l-3.61.47v2.69l3.61.55v2.69l-18.48-3.08v-3.25l18.48-3.08v3ZM173.16,560.59l7.55,1.08v-2l-7.55.92Z"/>
        <path class="cls-5" d="M186.78,546.67h-7.77v3.11h7.77v2.94h-18.48v-2.94h8.02v-3.11h-8.02v-2.94h18.48v2.94Z"/>
        <path class="cls-5" d="M186.78,530.33h-13.73l3.88.58,9.85,1.72v2.22l-9.85,1.64-3.88.56h13.73v2.61h-18.48v-3.97l9.35-1.61,3.58-.5-3.58-.53-9.35-1.58v-3.91h18.48v2.77Z"/>
        <path class="cls-5" d="M186.78,517.99l-3.61.47v2.69l3.61.55v2.69l-18.48-3.08v-3.25l18.48-3.08v3ZM173.16,519.71l7.55,1.08v-2l-7.55.92Z"/>
      </g>
      <g>
        <path class="cls-5" d="M730.77,1110.47h7.05c4.89,0,7.8,2.07,7.8,5.73v.39c0,1.44-.87,2.76-2.49,3.63,2.19.87,3.3,2.46,3.3,4.56v.6c0,3.72-3.12,5.91-8.37,5.91h-7.29v-20.82ZM738.09,1118.78c2.07,0,3.06-.66,3.06-1.89v-.39c0-1.11-.66-1.95-2.82-1.95h-3.24v4.23h3ZM738.66,1127.21c2.22,0,3.3-.69,3.3-2.04v-.45c0-1.23-.78-2.13-3-2.13h-3.87v4.62h3.57Z"/>
        <path class="cls-5" d="M749.94,1110.47h4.62v16.41h8.04v4.41h-12.66v-20.82Z"/>
        <path class="cls-5" d="M771.54,1110.47h4.47l7.47,20.82h-4.8l-1.44-4.35h-7.08l-1.38,4.35h-4.68l7.44-20.82ZM775.95,1123.01l-2.34-7.08-2.22,7.08h4.56Z"/>
        <path class="cls-5" d="M785.67,1122.71v-3.36c0-5.73,4.05-8.88,8.97-8.88h5.31l-1.89,4.35h-2.94c-2.55,0-4.89.78-4.89,4.35v3.42c0,2.55,1.2,4.35,5.16,4.35h4.02v4.35h-5.01c-5.01,0-8.73-2.94-8.73-8.58Z"/>
        <path class="cls-5" d="M802.8,1110.47h4.62v9.06l7.2-9.06h5.07l-7.56,9.51,8.4,11.31h-5.49l-7.62-10.2v10.2h-4.62v-20.82Z"/>
        <path class="cls-5" d="M829.65,1122.59v-1.74c0-4.38,1.56-8.49,4.26-11.79h4.5c-2.49,3.36-4.17,7.5-4.17,11.73v1.86c0,4.23,1.68,8.37,4.17,11.73h-4.5c-2.7-3.3-4.26-7.41-4.26-11.79Z"/>
        <path class="cls-5" d="M839.49,1110.47h4.98l4.92,15.24,4.77-15.24h4.95l-7.32,20.82h-5.07l-7.23-20.82Z"/>
        <path class="cls-5" d="M861.87,1110.47h4.62v20.82h-4.62v-20.82Z"/>
        <path class="cls-5" d="M870.81,1110.47h7.11c5.04,0,7.86,2.55,7.86,6.75v.57c0,4.14-3,6.69-8.22,6.69h-2.19v6.81h-4.56v-20.82ZM877.23,1120.37c2.73,0,3.9-.87,3.9-2.61v-.51c0-1.41-.54-2.64-3.54-2.64h-2.22v5.76h1.86Z"/>
        <path class="cls-5" d="M891.59,1122.65v-1.86c0-4.23-1.68-8.37-4.17-11.73h4.5c2.7,3.3,4.26,7.41,4.26,11.79v1.74c0,4.38-1.56,8.49-4.26,11.79h-4.5c2.49-3.36,4.17-7.5,4.17-11.73Z"/>
      </g>
    </g>
  </g>
</svg>